<svg width="64" height="32" viewBox="0 0 64 32" fill="none" xmlns="http://www.w3.org/2000/svg">
<rect width="64" height="32" rx="2" fill="#FBFAF8"/>
<path fill-rule="evenodd" clip-rule="evenodd" d="M42.8887 9.93064C42.119 9.64274 40.9129 9.33334 39.406 9.33334C35.5663 9.33334 32.8607 11.261 32.838 14.0218C32.817 16.0649 34.7689 17.2023 36.2434 17.8833C37.7555 18.5785 38.2646 19.0231 38.2566 19.6447C38.247 20.5972 37.0494 21.0322 35.9324 21.0322C34.3767 21.0322 33.5508 20.8178 32.2744 20.2872L31.7732 20.061L31.2277 23.2421C32.1364 23.638 33.8136 23.9825 35.5567 24C39.6421 24 42.2944 22.095 42.3239 19.1458C42.3381 17.5293 41.3034 16.299 39.062 15.286C37.7027 14.6282 36.8712 14.1887 36.8803 13.5235C36.8803 12.9341 37.5835 12.3012 39.1046 12.3012C40.3771 12.2814 41.2966 12.558 42.0135 12.8464L42.3625 13.0093L42.8887 9.93064ZM24.9101 23.7891L27.3399 9.58112H31.2256L28.7946 23.7891H24.9101ZM49.852 9.59502H52.855L56 23.7928H52.3936C52.3936 23.7928 52.0377 22.1615 51.9214 21.6643C51.6216 21.6643 50.3726 21.6628 49.1959 21.6613L49.1919 21.6613L49.1858 21.6612L49.1767 21.6612C48.1343 21.6599 47.153 21.6587 46.9442 21.6587C46.7933 22.0427 46.1264 23.7928 46.1264 23.7928H42.0449L47.816 10.7732C48.2258 9.84728 48.9211 9.59502 49.852 9.59502ZM48.0618 18.7525C48.3836 17.9341 49.6107 14.7801 49.6107 14.7801C49.5994 14.7986 49.6749 14.6032 49.778 14.3363L49.7782 14.336L49.7784 14.3353C49.8866 14.0553 50.0251 13.6969 50.1255 13.4243L50.3878 14.6495C50.3878 14.6495 51.1324 18.0404 51.2885 18.7525H48.0618ZM17.8464 19.2801L21.6504 9.59146H25.7665L19.6491 23.7717L15.537 23.7773L12.0588 11.3506C14.5255 12.5814 16.7329 15.0407 17.4406 17.3111L17.8464 19.2801Z" fill="#1A1F71"/>
<path fill-rule="evenodd" clip-rule="evenodd" d="M14.3166 9.58212H8.04938L8 9.87738C12.8755 11.0544 16.1016 13.8961 17.4406 17.3114L16.0778 10.7812C15.8428 9.88134 15.16 9.61323 14.3166 9.58212Z" fill="#F9A51A"/>
</svg>
