<svg width="64" height="32" viewBox="0 0 64 32" fill="none" xmlns="http://www.w3.org/2000/svg">
<rect width="64" height="32" rx="2" fill="#FBFAF8"/>
<path fill-rule="evenodd" clip-rule="evenodd" d="M27.3938 27.1865L27.83 24.5447L26.8583 24.5231H22.2183L25.4429 5.02771C25.453 4.96867 25.4854 4.91387 25.5329 4.87489C25.5805 4.8359 25.6413 4.81451 25.7048 4.81451H33.5286C36.1262 4.81451 37.9187 5.32978 38.8544 6.34695C39.2932 6.82413 39.5726 7.32291 39.7079 7.8716C39.8497 8.44746 39.852 9.13538 39.7137 9.97456L39.7037 10.0356V10.5734L40.1424 10.8104C40.5118 10.9973 40.8055 11.2112 41.0307 11.456C41.406 11.8641 41.6487 12.3827 41.7513 12.9973C41.8573 13.6296 41.8223 14.3821 41.6487 15.234C41.4485 16.2137 41.1249 17.0671 40.6878 17.7653C40.2859 18.4087 39.7738 18.9424 39.1656 19.3559C38.585 19.7488 37.8953 20.0471 37.1154 20.2381C36.3596 20.4256 35.498 20.5203 34.5529 20.5203H33.9441C33.5088 20.5203 33.0859 20.6698 32.7539 20.9378C32.421 21.2113 32.2009 21.5851 32.1334 21.9939L32.0873 22.2319L31.3166 26.8884L31.2818 27.0593C31.2724 27.1134 31.2565 27.1404 31.2332 27.1587C31.2124 27.1754 31.1825 27.1865 31.1533 27.1865H27.3938Z" fill="#28356A"/>
<path fill-rule="evenodd" clip-rule="evenodd" d="M40.5577 10.0978C40.5346 10.2401 40.5077 10.3856 40.4778 10.5351C39.4461 15.5862 35.9161 17.3312 31.4078 17.3312H29.1123C28.5609 17.3312 28.0962 17.7128 28.0105 18.2314L26.5023 27.3527C26.4465 27.6933 26.7217 28.0001 27.082 28.0001H31.1534C31.6353 28.0001 32.0449 27.6662 32.1208 27.2128L32.1608 27.0157L32.9274 22.3774L32.9767 22.123C33.0517 21.6681 33.4622 21.3339 33.9442 21.3339H34.553C38.4975 21.3339 41.5855 19.807 42.488 15.3881C42.8649 13.5423 42.6698 12.0009 41.6722 10.9169C41.3703 10.5901 40.9958 10.3188 40.5577 10.0978Z" fill="#019DDE"/>
<path fill-rule="evenodd" clip-rule="evenodd" d="M39.4783 9.68738C39.3206 9.6435 39.158 9.60384 38.9912 9.56798C38.8235 9.533 38.6517 9.50204 38.4749 9.47486C37.856 9.37951 37.1777 9.33429 36.4513 9.33429H30.3191C30.1679 9.33429 30.0244 9.36681 29.8962 9.42563C29.6132 9.55528 29.4032 9.81057 29.3523 10.1231L28.0476 18.0016L28.0103 18.2313C28.096 17.7127 28.5607 17.3311 29.1121 17.3311H31.4076C35.9158 17.3311 39.4459 15.5852 40.4776 10.535C40.5084 10.3855 40.5344 10.2401 40.5575 10.0977C40.2965 9.96562 40.0138 9.85268 39.7094 9.75644C39.6342 9.7326 39.5566 9.70966 39.4783 9.68738Z" fill="#00164C"/>
<path fill-rule="evenodd" clip-rule="evenodd" d="M29.3523 10.1232C29.4032 9.81062 29.6133 9.55533 29.8962 9.42657C30.0254 9.36753 30.1679 9.33501 30.3191 9.33501H36.4514C37.1778 9.33501 37.856 9.38045 38.4749 9.4758C38.6518 9.50276 38.8235 9.53394 38.9913 9.56892C39.1581 9.60456 39.3207 9.64444 39.4784 9.6881C39.5567 9.71038 39.6342 9.73355 39.7102 9.75649C40.0146 9.85273 40.2975 9.96656 40.5585 10.0978C40.8655 8.23118 40.5559 6.96027 39.4975 5.80944C38.3305 4.54232 36.2245 4.00009 33.5295 4.00009H25.7055C25.155 4.00009 24.6854 4.3817 24.6004 4.9012L21.3416 24.597C21.2773 24.9867 21.5925 25.3382 22.0047 25.3382H26.8349L29.3523 10.1232Z" fill="#012F86"/>
</svg>
