<svg width="64" height="32" viewBox="0 0 64 32" fill="none" xmlns="http://www.w3.org/2000/svg">
<rect width="64" height="32" rx="2" fill="#FBFAF8"/>
<path fill-rule="evenodd" clip-rule="evenodd" d="M38.293 22.5991C37.988 23.2741 38.7308 22.8336 38.8218 22.7566C39.8236 21.9168 40.5608 19.3968 40.1074 19.0114C39.5352 18.5269 36.8807 18.5312 35.7042 19.3264C35.2126 19.6596 35.4881 19.7242 36.0066 19.695C36.9138 19.6419 37.7285 19.5868 38.4253 19.6419C39.0865 19.695 39.1237 19.9933 38.9542 20.6391C38.7572 21.3902 38.6331 21.8474 38.293 22.5991Z" fill="#FBAF29"/>
<path fill-rule="evenodd" clip-rule="evenodd" d="M37.2053 20.5696C30.3565 23.1595 22.4542 22.8 15.9543 19.626C15.8643 19.5824 15.5459 19.4134 15.183 19.2449C14.8992 19.1142 14.8455 19.1573 14.7995 19.2037C14.7359 19.2674 14.7602 19.3828 14.861 19.467C18.678 22.6521 23.2673 24.1836 28.2779 23.9825C32.1022 23.8283 35.6664 22.5295 37.7072 21.1469C38.0086 20.9425 38.1161 20.6773 37.991 20.5528C37.8623 20.4245 37.5232 20.4489 37.2053 20.5696Z" fill="#FBAF29"/>
<path fill-rule="evenodd" clip-rule="evenodd" d="M45.4087 10.6669C47.3766 10.6458 48.7951 12.3467 48.7961 14.5849C48.7972 16.7583 47.4154 18.4689 45.4438 18.5187C43.463 18.568 42.0233 16.8488 42.0212 14.6007C42.0181 12.408 43.4294 10.6884 45.4087 10.6669ZM26.1864 12.1783C26.1864 10.7717 23.0637 9.81617 22.0603 11.9078C21.2792 10.281 18.8119 10.3346 18.1399 11.9202L18.1404 11.0901C18.1404 10.9642 18.0163 10.8493 17.8799 10.8493H16.479C16.343 10.8493 16.219 10.9642 16.219 11.0901V18.1089C16.219 18.2348 16.343 18.3502 16.479 18.3502H17.9848C18.1208 18.3502 18.2412 18.2348 18.2412 18.1089V13.6581C18.2412 13.1559 18.4707 12.5886 19.045 12.4713C19.6767 12.3415 20.1921 12.6652 20.1921 13.3411L20.1916 18.1089C20.1916 18.2348 20.3157 18.3502 20.4516 18.3502H21.9828C22.1192 18.3502 22.2433 18.2348 22.2433 18.1089L22.2438 13.3799C22.2438 12.3075 24.1699 12.0303 24.1704 13.3799V18.1089C24.1704 18.2348 24.2939 18.3502 24.4304 18.3502H25.9264C26.0629 18.3502 26.1864 18.2348 26.1864 18.1089V12.1783ZM41.1604 11.1018C41.1604 10.9759 41.0364 10.862 40.9004 10.862H35.9477C35.8789 10.862 35.8107 10.8883 35.7626 10.9323C35.714 10.9778 35.6923 11.0405 35.6923 11.1042V12.0794C35.6923 12.2044 35.8242 12.3159 35.9596 12.3159H38.5629L35.5967 16.3383C35.4449 16.5439 35.4522 16.6802 35.4554 16.7402V16.7402V16.7403V16.7403V16.7403C35.4558 16.7473 35.4561 16.7532 35.4561 16.7581L35.4587 17.8774C35.4587 18.1173 35.5548 18.2245 35.8521 18.1082C37.666 17.3982 39.5988 17.3561 41.0555 18.1632C41.1744 18.2298 41.3186 18.1575 41.3186 17.9698L41.3191 16.7131C41.3191 16.6317 41.2716 16.5523 41.1971 16.5101C40.3556 16.0185 39.2855 15.8868 38.247 15.9017L41.0203 12.3317C41.1532 12.1608 41.1604 11.9774 41.1604 11.9281V11.1018ZM56.0001 12.6988C56.0001 11.5862 55.2727 10.667 53.5705 10.7154C52.7806 10.7379 52.165 11.2942 51.8227 12.0812V11.0701C51.8227 10.9432 51.6987 10.8288 51.5627 10.8288H50.1091C49.9732 10.8288 49.8496 10.9432 49.8496 11.0701V18.1152C49.8496 18.2411 49.9732 18.3556 50.1091 18.3556H51.6289C51.7654 18.3556 51.8894 18.2411 51.8894 18.1152V13.6898C51.8894 13.031 52.4994 12.4747 53.0613 12.4546C53.525 12.4388 53.9887 12.851 53.9887 13.3168V18.1152C53.9887 18.2411 54.1127 18.3556 54.2487 18.3556H55.7406C55.8765 18.3556 56.0006 18.2411 56.0001 18.1152V12.6988ZM30.6731 10.682C32.8158 10.6121 33.922 11.3662 33.922 12.5496V15.8338C33.922 16.0803 34.0016 16.514 34.0817 16.6112L34.4756 17.0914C34.548 17.1848 34.534 17.3265 34.4441 17.4069L33.373 18.3543C33.3229 18.3988 33.2531 18.4233 33.1838 18.4213C33.1145 18.419 33.0463 18.3893 32.9998 18.3419L32.1774 17.4935C31.6051 18.0838 30.8499 18.4261 29.984 18.4687C28.5309 18.5377 27.4655 17.8296 27.4909 16.3451C27.5177 14.7322 28.8158 13.8901 30.2099 13.7915L31.8584 13.6756V12.991C31.8584 12.4682 31.5002 12.0737 30.6731 12.0737C30.1184 12.0737 29.74 12.4156 29.6439 12.8766C29.618 12.9929 29.4872 13.0805 29.359 13.0681L28.0249 12.9264C27.9535 12.9187 27.8858 12.8828 27.8439 12.8292C27.8015 12.7751 27.785 12.7042 27.7995 12.6386C28.1205 11.1747 29.3653 10.7242 30.6731 10.682ZM14.4316 12.5478C14.4316 11.3639 13.3259 10.6099 11.1832 10.6797C9.87483 10.7224 8.63006 11.1728 8.30905 12.6373C8.29458 12.7019 8.31112 12.7733 8.35351 12.8269C8.39589 12.881 8.46309 12.9179 8.53443 12.9255L9.86914 13.0658C9.99683 13.0797 10.1276 12.9921 10.1535 12.8748C10.2496 12.4137 10.628 12.0729 11.1832 12.0729C12.0098 12.0729 12.368 12.4664 12.368 12.9887V13.6743L10.7195 13.7896C9.32533 13.8878 8.02732 14.7299 8.00044 16.3428C7.97511 17.8288 9.04051 18.5363 10.4936 18.4665C11.3595 18.4253 12.1147 18.083 12.6869 17.4913L13.5099 18.3401C13.5559 18.387 13.6241 18.4171 13.6934 18.4205C13.7627 18.4224 13.833 18.398 13.8826 18.3535L14.9542 17.4051C15.0436 17.3251 15.0581 17.1829 14.9852 17.0896L14.5913 16.6104C14.5112 16.5118 14.4316 16.0785 14.4316 15.8319V12.5478ZM45.4087 17.0714C46.5144 17.0714 46.5671 15.9698 46.5671 14.6093C46.5671 13.2492 46.4441 12.1615 45.4087 12.1457C44.3376 12.1299 44.2502 13.2492 44.2502 14.6093C44.2502 15.9698 44.3552 17.0714 45.4087 17.0714ZM31.876 14.7132V15.6257C31.876 16.3333 31.3694 16.936 30.9502 17.0523C30.1242 17.2836 29.5881 16.689 29.6083 16.0551C29.6341 15.2542 30.3945 14.7659 31.0365 14.7438L31.876 14.7132ZM12.3856 15.6239V14.7124L11.5461 14.7416C10.9041 14.7651 10.1437 15.2524 10.1178 16.0529C10.0977 16.6872 10.6337 17.2813 11.4598 17.0506C11.879 16.9342 12.3856 16.331 12.3856 15.6239Z" fill="#2A2D2E"/>
</svg>
