<svg width="64" height="32" viewBox="0 0 64 32" fill="none" xmlns="http://www.w3.org/2000/svg">
<rect width="64" height="32" rx="2" fill="#FBFAF8"/>
<path fill-rule="evenodd" clip-rule="evenodd" d="M39.742 28C46.5119 28 52 22.6274 52 16C52 9.37258 46.5119 4 39.742 4C32.972 4 27.4839 9.37258 27.4839 16C27.4839 22.6274 32.972 28 39.742 28Z" fill="#F79E1B"/>
<path fill-rule="evenodd" clip-rule="evenodd" d="M24.2581 28C31.028 28 36.5161 22.6274 36.5161 16C36.5161 9.37258 31.028 4 24.2581 4C17.4881 4 12 9.37258 12 16C12 22.6274 17.4881 28 24.2581 28Z" fill="#EB001B"/>
<path fill-rule="evenodd" clip-rule="evenodd" d="M31.9998 6.69592C29.2438 8.89637 27.4839 12.247 27.4839 15.9999C27.4839 19.7529 29.2438 23.1035 31.9998 25.304C34.7557 23.1035 36.5156 19.7529 36.5156 15.9999C36.5156 12.247 34.7557 8.89637 31.9998 6.69592Z" fill="#FF5F00"/>
</svg>
