<svg width="21" height="18" viewBox="0 0 21 18" fill="none" xmlns="http://www.w3.org/2000/svg">
<path d="M10.0078 1.77702L10.4631 2.24293L10.9553 1.77779C12.3293 0.510113 14.2324 -0.066845 16.1027 0.227846C18.9287 0.673572 21 2.9884 21 5.70235V5.92754C21 7.53883 20.2945 9.08024 19.0477 10.179L11.6361 16.729C11.3285 17.0008 10.9225 17.1522 10.5 17.1522C10.0775 17.1522 9.67148 17.0008 9.36387 16.729L1.95193 10.179C0.706699 9.08024 0 7.53883 0 5.92754V5.70235C0 2.9884 2.07211 0.673572 4.89727 0.227846C6.73066 -0.066845 8.6707 0.510114 10.0078 1.77702C10.0078 1.7774 9.9709 1.77702 10.0078 1.77702ZM10.4631 4.87923L8.61738 3.06216C7.72734 2.2538 6.46406 1.8702 5.22129 2.06588C3.34482 2.36213 1.96875 3.90081 1.96875 5.70235V5.92754C1.96875 7.02245 2.44904 8.07075 3.2952 8.81622L10.5 15.1837L17.7064 8.81622C18.5514 8.07075 19.0312 7.02245 19.0312 5.92754V5.70235C19.0312 3.90081 17.6531 2.36213 15.7787 2.06588C14.5359 1.8702 13.2727 2.2538 12.3826 3.06216L10.4631 4.87923Z" fill="#82AAE3"/>
</svg>
