<svg width="818" height="408" viewBox="0 0 818 408" fill="none" xmlns="http://www.w3.org/2000/svg">
<path d="M165.73 45.1078H15.7704C7.89645 45.1078 1.51337 51.4845 1.51337 59.3505V251.994C1.51337 259.86 7.89645 266.237 15.7704 266.237H165.73C173.604 266.237 179.988 259.86 179.988 251.994V59.3505C179.988 51.4845 173.604 45.1078 165.73 45.1078Z" fill="#EFAF00" stroke="black" stroke-width="2" stroke-linecap="round" stroke-linejoin="round"/>
<path d="M124.225 45.1078H106.879V266.441H124.225V45.1078Z" fill="#1C0E0C"/>
<path d="M652.435 369.56H802.395C810.269 369.56 816.652 363.183 816.652 355.317V209.478C816.652 201.612 810.269 195.235 802.395 195.235L652.435 195.235C644.561 195.235 638.178 201.612 638.178 209.478V355.317C638.178 363.183 644.561 369.56 652.435 369.56Z" fill="#C5DCDD" stroke="black" stroke-width="2" stroke-linecap="round" stroke-linejoin="round"/>
<path d="M693.94 369.721H711.287V195.235H693.94V369.721Z" fill="#1C0E0C"/>
<path d="M678.661 1.51575H138.258C130.2 1.51575 123.667 8.04187 123.667 16.0922V392.214C123.667 400.264 130.2 406.791 138.258 406.791H678.661C686.719 406.791 693.252 400.264 693.252 392.214V16.0922C693.252 8.04187 686.719 1.51575 678.661 1.51575Z" fill="#F4F1ED" stroke="#070707" stroke-width="2" stroke-linecap="round" stroke-linejoin="round"/>
<path d="M123.667 35.2395H693.252" stroke="#070707" stroke-width="2" stroke-linecap="round" stroke-linejoin="round"/>
<path d="M208.45 15.405H205.565C203.288 15.405 201.442 17.2493 201.442 19.5243V22.4066C201.442 24.6816 203.288 26.5259 205.565 26.5259H208.45C210.728 26.5259 212.574 24.6816 212.574 22.4066V19.5243C212.574 17.2493 210.728 15.405 208.45 15.405Z" fill="#FFEFF0"/>
<path d="M189.461 15.405H186.576C184.298 15.405 182.452 17.2493 182.452 19.5243V22.4066C182.452 24.6816 184.298 26.5259 186.576 26.5259H189.461C191.738 26.5259 193.584 24.6816 193.584 22.4066V19.5243C193.584 17.2493 191.738 15.405 189.461 15.405Z" fill="#FFEFF0"/>
<path d="M170.471 15.405H167.586C165.309 15.405 163.462 17.2493 163.462 19.5243V22.4066C163.462 24.6816 165.309 26.5259 167.586 26.5259H170.471C172.748 26.5259 174.594 24.6816 174.594 22.4066V19.5243C174.594 17.2493 172.748 15.405 170.471 15.405Z" fill="#FFEFF0"/>
<path d="M206.155 13.363H203.27C200.992 13.363 199.146 15.2073 199.146 17.4823V20.3646C199.146 22.6396 200.992 24.4839 203.27 24.4839H206.155C208.432 24.4839 210.278 22.6396 210.278 20.3646V17.4823C210.278 15.2073 208.432 13.363 206.155 13.363Z" fill="#C5DCDD" stroke="black" stroke-width="2" stroke-linecap="round" stroke-linejoin="round"/>
<path d="M187.165 13.363H184.28C182.003 13.363 180.157 15.2073 180.157 17.4823V20.3646C180.157 22.6396 182.003 24.4839 184.28 24.4839H187.165C189.442 24.4839 191.289 22.6396 191.289 20.3646V17.4823C191.289 15.2073 189.442 13.363 187.165 13.363Z" fill="#EFAF00" stroke="black" stroke-width="2" stroke-linecap="round" stroke-linejoin="round"/>
<path d="M168.172 13.363H165.286C163.009 13.363 161.163 15.2073 161.163 17.4823V20.3646C161.163 22.6396 163.009 24.4839 165.286 24.4839H168.172C170.449 24.4839 172.295 22.6396 172.295 20.3646V17.4823C172.295 15.2073 170.449 13.363 168.172 13.363Z" fill="#F46F40" stroke="black" stroke-width="2" stroke-linecap="round" stroke-linejoin="round"/>
<path d="M591.495 287.87H232.161C228.338 287.87 225.239 290.966 225.239 294.785V355.196C225.239 359.015 228.338 362.111 232.161 362.111H591.495C595.318 362.111 598.418 359.015 598.418 355.196V294.785C598.418 290.966 595.318 287.87 591.495 287.87Z" stroke="#070707" stroke-width="2" stroke-linecap="round" stroke-linejoin="round"/>
<path d="M533.976 308.497H490.902V341.734H533.976V308.497Z" fill="#EFAF00" stroke="black" stroke-width="2" stroke-linecap="round" stroke-linejoin="round"/>
<path d="M552.215 341.738H533.976V316.807H543.095L552.215 330.005V341.738Z" fill="#F4F1ED" stroke="#070707" stroke-width="2" stroke-linecap="round" stroke-linejoin="round"/>
<path d="M537.278 321.421H541.932L546.59 328.159H537.278V321.421Z" fill="#F4F1ED" stroke="#070707" stroke-width="2" stroke-linecap="round" stroke-linejoin="round"/>
<path d="M503.607 346.733C506.19 346.733 508.284 344.641 508.284 342.06C508.284 339.479 506.19 337.387 503.607 337.387C501.023 337.387 498.929 339.479 498.929 342.06C498.929 344.641 501.023 346.733 503.607 346.733Z" fill="#F4F1ED" stroke="#070707" stroke-width="2" stroke-linecap="round" stroke-linejoin="round"/>
<path d="M543.033 346.733C545.616 346.733 547.71 344.641 547.71 342.06C547.71 339.479 545.616 337.387 543.033 337.387C540.449 337.387 538.355 339.479 538.355 342.06C538.355 344.641 540.449 346.733 543.033 346.733Z" fill="#F4F1ED" stroke="#070707" stroke-width="2" stroke-linecap="round" stroke-linejoin="round"/>
<path d="M525.328 316.807H511.59" stroke="#070707" stroke-width="2" stroke-linecap="round" stroke-linejoin="round"/>
<path d="M520.371 322.481H506.637" stroke="#070707" stroke-width="2" stroke-linecap="round" stroke-linejoin="round"/>
<path d="M525.328 328.159H511.59" stroke="#070707" stroke-width="2" stroke-linecap="round" stroke-linejoin="round"/>
<path d="M451.036 346.674C461.721 346.674 470.383 338.021 470.383 327.346C470.383 316.672 461.721 308.018 451.036 308.018C440.351 308.018 431.689 316.672 431.689 327.346C431.689 338.021 440.351 346.674 451.036 346.674Z" fill="#F4F1ED" stroke="#070707" stroke-width="2" stroke-linecap="round" stroke-linejoin="round"/>
<path d="M451.119 308.077V346.733" stroke="#070707" stroke-width="2" stroke-linecap="round" stroke-linejoin="round"/>
<path d="M454.538 308.195C454.538 308.195 467.435 323.145 454.538 346.615V308.195Z" fill="#F4F1ED"/>
<path d="M454.538 308.195C454.538 308.195 467.435 323.145 454.538 346.615" stroke="#070707" stroke-width="2" stroke-linecap="round" stroke-linejoin="round"/>
<path d="M447.695 308.195C447.695 308.195 434.798 323.145 447.695 346.615" stroke="#070707" stroke-width="2" stroke-linecap="round" stroke-linejoin="round"/>
<path d="M431.771 327.405H470.466" stroke="#070707" stroke-width="2" stroke-linecap="round" stroke-linejoin="round"/>
<path d="M439.071 342.528C439.071 342.528 450.781 335.498 462.911 342.528" stroke="#070707" stroke-width="2" stroke-linecap="round" stroke-linejoin="round"/>
<path d="M439.071 312.369C439.071 312.369 450.781 319.398 462.911 312.369" stroke="#070707" stroke-width="2" stroke-linecap="round" stroke-linejoin="round"/>
<path d="M394.999 336.842C402.831 336.842 409.181 330.811 409.181 323.372C409.181 315.934 402.831 309.903 394.999 309.903C387.166 309.903 380.816 315.934 380.816 323.372C380.816 330.811 387.166 336.842 394.999 336.842Z" fill="#FFEFF0"/>
<path d="M392.322 335.773C400.384 335.773 406.921 329.567 406.921 321.912C406.921 314.256 400.384 308.05 392.322 308.05C384.259 308.05 377.723 314.256 377.723 321.912C377.723 329.567 384.259 335.773 392.322 335.773Z" fill="#EFAF00" stroke="black" stroke-width="2" stroke-linecap="round" stroke-linejoin="round"/>
<path d="M399.621 314.977C400.575 315.863 401.336 316.935 401.857 318.128C402.377 319.321 402.646 320.608 402.646 321.91C402.646 323.211 402.377 324.498 401.857 325.691C401.336 326.884 400.575 327.957 399.621 328.843" stroke="#070707" stroke-width="2" stroke-linecap="round" stroke-linejoin="round"/>
<path d="M402.628 336.567L411.669 346.07C412.058 346.467 412.582 346.704 413.138 346.731C413.694 346.758 414.239 346.573 414.664 346.215C414.869 346.042 415.036 345.83 415.155 345.591C415.274 345.351 415.343 345.09 415.358 344.823C415.373 344.556 415.333 344.289 415.241 344.038C415.148 343.787 415.006 343.558 414.822 343.364L405.781 333.865C405.392 333.467 404.868 333.231 404.312 333.203C403.757 333.176 403.212 333.359 402.785 333.716C402.581 333.888 402.414 334.101 402.295 334.34C402.175 334.579 402.106 334.84 402.092 335.107C402.077 335.374 402.117 335.641 402.209 335.892C402.301 336.143 402.444 336.373 402.628 336.567Z" fill="#EFAF00" stroke="black" stroke-width="2" stroke-linecap="round" stroke-linejoin="round"/>
<path d="M355.297 313.814H327.9C326.458 313.814 325.29 314.982 325.29 316.422V343.792C325.29 345.232 326.458 346.399 327.9 346.399H355.297C356.739 346.399 357.907 345.232 357.907 343.792V316.422C357.907 314.982 356.739 313.814 355.297 313.814Z" fill="#C5DCDD" stroke="black" stroke-width="2" stroke-linecap="round" stroke-linejoin="round"/>
<path d="M347.715 313.814H322.762C321.321 313.814 320.152 314.982 320.152 316.422V343.792C320.152 345.232 321.321 346.399 322.762 346.399H347.715C349.156 346.399 350.325 345.232 350.325 343.792V316.422C350.325 314.982 349.156 313.814 347.715 313.814Z" fill="#C5DCDD" stroke="black" stroke-width="2" stroke-linecap="round" stroke-linejoin="round"/>
<path d="M335.73 348.17V311.765" stroke="#070707" stroke-width="2" stroke-linecap="round" stroke-linejoin="round"/>
<path d="M318.548 330.028H359.354" stroke="#070707" stroke-width="2" stroke-linecap="round" stroke-linejoin="round"/>
<path d="M340.616 303.357H343.014C344.309 303.357 345.552 303.871 346.469 304.787C347.385 305.702 347.9 306.944 347.9 308.238V308.929C347.9 310.224 347.385 311.466 346.469 312.381C345.552 313.296 344.309 313.811 343.014 313.811H335.73V308.258C335.73 306.963 336.245 305.722 337.161 304.807C338.077 303.891 339.32 303.377 340.616 303.377V303.357Z" stroke="#070707" stroke-width="2" stroke-linecap="round" stroke-linejoin="round"/>
<path d="M335.675 313.818H329.02C327.996 313.818 327.014 313.412 326.291 312.689C325.567 311.966 325.16 310.985 325.16 309.962V309.416C325.16 308.394 325.567 307.413 326.291 306.69C327.014 305.966 327.996 305.56 329.02 305.56H331.827C332.85 305.56 333.832 305.966 334.556 306.69C335.28 307.413 335.687 308.394 335.687 309.416V313.818H335.675Z" stroke="#070707" stroke-width="2" stroke-linecap="round" stroke-linejoin="round"/>
<path d="M341.815 320.49L335.675 313.814L331.917 317.572" stroke="#070707" stroke-width="2" stroke-linecap="round" stroke-linejoin="round"/>
<path d="M278.993 303.055H279.598C280.731 303.055 281.818 303.505 282.619 304.305C283.421 305.106 283.871 306.191 283.871 307.323V313.151H274.72V307.323C274.72 306.191 275.17 305.106 275.971 304.305C276.773 303.505 277.859 303.055 278.993 303.055V303.055Z" stroke="#070707" stroke-width="2" stroke-linecap="round" stroke-linejoin="round"/>
<path d="M275.773 303.055H276.379C277.512 303.055 278.599 303.505 279.4 304.305C280.201 305.106 280.651 306.191 280.651 307.323V313.151H271.505V307.323C271.505 306.191 271.955 305.106 272.756 304.305C273.557 303.505 274.644 303.055 275.777 303.055H275.773Z" stroke="#070707" stroke-width="2" stroke-linecap="round" stroke-linejoin="round"/>
<path d="M293.328 346.733H283.446L287.566 313.131H289.209L293.328 346.733Z" fill="#1C0E0C"/>
<path d="M287.566 313.131L283.446 346.733H259.979L264.095 313.131H287.566Z" fill="#EFAF00" stroke="black" stroke-width="2" stroke-linecap="round" stroke-linejoin="round"/>
<path d="M477.648 151.066H398.285C394.462 151.066 391.363 154.162 391.363 157.981V237.264C391.363 241.083 394.462 244.18 398.285 244.18H477.648C481.471 244.18 484.57 241.083 484.57 237.264V157.981C484.57 154.162 481.471 151.066 477.648 151.066Z" fill="#1C0E0C"/>
<path d="M473.776 147.147H394.413C390.59 147.147 387.491 150.243 387.491 154.062V233.345C387.491 237.164 390.59 240.261 394.413 240.261H473.776C477.599 240.261 480.698 237.164 480.698 233.345V154.062C480.698 150.243 477.599 147.147 473.776 147.147Z" fill="#F4F1ED" stroke="#070707" stroke-width="2" stroke-linecap="round" stroke-linejoin="round"/>
<path d="M450.596 230.114H424.071C421.564 230.114 419.091 229.549 416.833 228.461C414.576 227.373 412.594 225.79 411.034 223.83C409.474 221.87 408.377 219.584 407.825 217.142C407.273 214.7 407.28 212.165 407.844 209.725L413.19 190.829C413.375 190.03 413.825 189.316 414.468 188.805C415.11 188.294 415.907 188.015 416.728 188.014H457.939C458.76 188.014 459.557 188.293 460.2 188.804C460.842 189.316 461.292 190.029 461.476 190.829L466.826 209.725C467.39 212.165 467.396 214.7 466.843 217.142C466.291 219.584 465.193 221.87 463.633 223.83C462.073 225.79 460.091 227.372 457.833 228.46C455.576 229.548 453.102 230.113 450.596 230.114Z" fill="#EFAF00"/>
<path d="M447.392 227.239H420.867C418.361 227.239 415.887 226.674 413.63 225.586C411.372 224.498 409.39 222.915 407.83 220.956C406.27 218.996 405.172 216.71 404.62 214.268C404.067 211.826 404.073 209.29 404.637 206.851L409.983 187.955C410.168 187.156 410.619 186.443 411.261 185.933C411.903 185.423 412.7 185.144 413.52 185.143H454.723C455.544 185.144 456.34 185.423 456.983 185.933C457.625 186.443 458.075 187.156 458.261 187.955L463.611 206.851C464.175 209.289 464.181 211.824 463.629 214.265C463.076 216.706 461.98 218.992 460.422 220.951C458.863 222.91 456.882 224.493 454.626 225.582C452.37 226.671 449.898 227.237 447.392 227.239Z" stroke="#070707" stroke-width="2" stroke-linecap="round" stroke-linejoin="round"/>
<path d="M450.187 181.813C450.188 182.935 450.103 184.055 449.931 185.163H418.328C418.157 184.055 418.071 182.935 418.072 181.813C418.072 171.47 425.262 163.082 434.13 163.082C442.998 163.082 450.187 171.45 450.187 181.813Z" stroke="#070707" stroke-width="2" stroke-linecap="round" stroke-linejoin="round"/>
<path d="M457.384 186.29C456.842 198.616 446.417 208.457 434.13 208.457C422.164 208.457 411.417 198.62 410.875 186.29C411.215 185.928 411.626 185.639 412.083 185.442C412.539 185.245 413.031 185.143 413.528 185.143H454.731C455.228 185.144 455.72 185.246 456.176 185.443C456.632 185.64 457.043 185.928 457.384 186.29V186.29Z" stroke="#070707" stroke-width="2" stroke-linecap="round" stroke-linejoin="round"/>
<path d="M435.729 204.836H432.526V212.372H435.729V204.836Z" stroke="#070707" stroke-width="2" stroke-linecap="round" stroke-linejoin="round"/>
<path d="M462.223 158.586C467.913 158.586 472.526 153.978 472.526 148.294C472.526 142.609 467.913 138.001 462.223 138.001C456.533 138.001 451.92 142.609 451.92 148.294C451.92 153.978 456.533 158.586 462.223 158.586Z" fill="#C5DCDD" stroke="black" stroke-width="2" stroke-linecap="round" stroke-linejoin="round"/>
<path d="M458.43 147.995L461.81 152.766L466.02 143.821" stroke="#070707" stroke-width="2" stroke-linecap="round" stroke-linejoin="round"/>
<path d="M593.681 88.9747H393.19C390.043 88.9747 387.491 91.524 387.491 94.6687V124.324C387.491 127.469 390.043 130.018 393.19 130.018H593.681C596.829 130.018 599.381 127.469 599.381 124.324V94.6687C599.381 91.524 596.829 88.9747 593.681 88.9747Z" stroke="#070707" stroke-width="2" stroke-linecap="round" stroke-linejoin="round"/>
<path d="M449.758 123.068H420.596C420.596 123.068 412.62 110.266 409.896 110.266C408.324 110.266 407.679 123.068 407.679 123.068H405.863C405.863 123.068 401.618 96.9305 406.323 95.4343C409.389 94.4566 417.691 97.0483 419.975 107.313C421.897 115.952 432.974 117.499 434.204 111.798C434.212 111.798 449.24 116.235 449.758 123.068Z" fill="#F4F1ED" stroke="#070707" stroke-width="2" stroke-linecap="round" stroke-linejoin="round"/>
<path d="M524.55 116.792C524.499 117.397 523.402 120.295 523.402 120.295L467.372 118.399V115.257C467.435 111.199 468.365 107.201 470.1 103.532C471.555 100.5 473.571 101.254 473.571 101.254C473.571 101.254 479.051 106.606 485.199 106.606C485.735 106.602 486.261 106.457 486.724 106.187C487.188 105.917 487.572 105.531 487.84 105.067C488.203 104.501 488.484 103.888 488.677 103.245C488.936 102.409 489.116 101.55 489.216 100.681C489.263 100.313 489.398 99.9622 489.609 99.6577C489.82 99.3531 490.102 99.1039 490.43 98.931C490.758 98.7581 491.123 98.6666 491.494 98.6642C491.865 98.6619 492.231 98.7487 492.561 98.9174C494.975 100.154 497.907 102.931 505.749 107.164L506.967 107.812C516.507 112.838 524.452 110.973 524.55 116.792Z" fill="#F4F1ED" stroke="#070707" stroke-width="2" stroke-linecap="round" stroke-linejoin="round"/>
<path d="M518.249 123.068C519.872 123.068 521.853 122.333 522.915 121.143C523.576 120.368 524.051 119.452 524.303 118.465C524.555 117.478 524.578 116.447 524.369 115.45H524.326C524.102 116.637 523.476 117.712 522.554 118.494C521.632 119.276 520.468 119.718 519.259 119.746L470.67 118.324C469.924 118.3 469.203 118.046 468.607 117.596C468.012 117.146 467.571 116.522 467.345 115.811V119.074C467.345 121.277 468.949 123.068 470.926 123.068H518.249Z" fill="#EFAF00" stroke="black" stroke-width="2" stroke-linecap="round" stroke-linejoin="round"/>
<path d="M507.86 108.291C495.721 104.144 489.648 102.267 488.654 103.261C488.913 102.424 489.093 101.566 489.192 100.696C489.239 100.329 489.374 99.978 489.586 99.6734C489.797 99.3689 490.078 99.1197 490.406 98.9468C490.735 98.7739 491.099 98.6823 491.47 98.68C491.841 98.6776 492.207 98.7645 492.537 98.9332C494.959 100.17 498.996 103.857 507.86 108.291Z" fill="#EFAF00" stroke="black" stroke-width="2" stroke-linecap="round" stroke-linejoin="round"/>
<path d="M494.621 102.833L496.822 99.4869C496.951 99.2911 497.118 99.1236 497.313 98.9945C497.508 98.8653 497.728 98.7774 497.959 98.7358C498.189 98.6943 498.426 98.7001 498.654 98.753C498.883 98.8058 499.098 98.9045 499.287 99.0431V99.0431C499.625 99.2907 499.861 99.6526 499.953 100.061C500.044 100.47 499.983 100.898 499.782 101.266L499.487 101.8" stroke="#070707" stroke-width="2" stroke-linecap="round" stroke-linejoin="round"/>
<path d="M500.281 104.568L501.893 102.161C502.009 101.993 502.158 101.849 502.331 101.74C502.504 101.631 502.698 101.559 502.9 101.527C503.103 101.495 503.309 101.504 503.508 101.554C503.706 101.605 503.892 101.695 504.055 101.819C504.35 102.041 504.553 102.364 504.626 102.726C504.698 103.088 504.635 103.464 504.448 103.783L503.866 104.835" stroke="#070707" stroke-width="2" stroke-linecap="round" stroke-linejoin="round"/>
<path d="M508.406 107.132C509.051 106.261 508.893 105.251 508.249 104.776C508.075 104.648 507.877 104.556 507.667 104.506C507.456 104.456 507.238 104.449 507.025 104.486C506.812 104.522 506.608 104.602 506.427 104.719C506.245 104.837 506.09 104.99 505.969 105.169L504.982 106.783" stroke="#070707" stroke-width="2" stroke-linecap="round" stroke-linejoin="round"/>
<path d="M580.808 97.7787C585.675 97.7787 589.62 93.837 589.62 88.9747C589.62 84.1124 585.675 80.1707 580.808 80.1707C575.94 80.1707 571.995 84.1124 571.995 88.9747C571.995 93.837 575.94 97.7787 580.808 97.7787Z" fill="#F46F40" stroke="black" stroke-width="2" stroke-linecap="round" stroke-linejoin="round"/>
<path d="M577.911 91.9787L583.705 85.9706" stroke="#070707" stroke-width="2" stroke-linecap="round" stroke-linejoin="round"/>
<path d="M583.705 91.9787L577.911 85.9706" stroke="#070707" stroke-width="2" stroke-linecap="round" stroke-linejoin="round"/>
<path d="M541.413 109.029C541.413 109.029 535.143 123.068 544.259 123.068H586.664C586.664 123.068 588.37 116.192 577.356 114.429C575.827 114.185 571.46 113.345 571.46 113.345C571.46 113.345 572.82 118.842 563.131 118.41C553.441 117.978 549.051 109.72 541.413 109.029Z" fill="#F4F1ED" stroke="#070707" stroke-width="2" stroke-linecap="round" stroke-linejoin="round"/>
<path d="M373.599 95.2418H238.36C234.537 95.2418 231.438 98.3379 231.438 102.157V237.26C231.438 241.08 234.537 244.176 238.36 244.176H373.599C377.422 244.176 380.521 241.08 380.521 237.26V102.157C380.521 98.3379 377.422 95.2418 373.599 95.2418Z" fill="#1C0E0C"/>
<path d="M367.4 88.9746H232.161C228.338 88.9746 225.239 92.0706 225.239 95.8898V230.993C225.239 234.812 228.338 237.908 232.161 237.908H367.4C371.223 237.908 374.323 234.812 374.323 230.993V95.8898C374.323 92.0706 371.223 88.9746 367.4 88.9746Z" fill="#EFAF00" stroke="black" stroke-width="2" stroke-linecap="round" stroke-linejoin="round"/>
<path d="M355.242 149.165L335.447 165.913V210.77H269.551V165.913L249.763 149.165L264.936 130.281C269.539 126.28 276.552 125.651 281.638 125.651H325.199C335.419 125.651 338.01 127.576 340.663 129.661L355.242 149.165Z" fill="#1C0E0C"/>
<path d="M353.576 146.102L333.426 163.153V208.822H266.335V163.153L246.19 146.102L261.646 126.861C266.335 122.789 273.474 122.149 278.655 122.149H323.006C333.411 122.149 336.044 124.112 338.729 126.233L353.576 146.102Z" fill="#F4F1ED" stroke="#070707" stroke-width="2" stroke-linecap="round" stroke-linejoin="round"/>
<path d="M266.335 163.153V146.994" stroke="#070707" stroke-width="2" stroke-linecap="round" stroke-linejoin="round"/>
<path d="M333.411 163.306V147.147" stroke="#070707" stroke-width="2" stroke-linecap="round" stroke-linejoin="round"/>
<path d="M299.881 137.039V208.822" stroke="#070707" stroke-width="2" stroke-linecap="round" stroke-linejoin="round"/>
<path d="M320.718 122.164H305.612C305.471 122.164 305.333 122.208 305.217 122.29C305.102 122.371 305.015 122.487 304.967 122.62L299.881 137.047L294.531 122.749C294.467 122.58 294.353 122.434 294.205 122.331C294.056 122.228 293.879 122.173 293.698 122.172H278.808L286.045 116.019C287.663 114.642 289.72 113.886 291.846 113.887H307.68C309.807 113.885 311.866 114.641 313.485 116.019L320.718 122.164Z" fill="#F4F1ED" stroke="#070707" stroke-width="2" stroke-linecap="round" stroke-linejoin="round"/>
<path d="M289.158 116.054L294.311 122.164L288.415 130.576L278.8 122.164L286.331 115.815C286.533 115.644 286.765 115.515 287.016 115.435C287.267 115.355 287.532 115.325 287.794 115.348C288.057 115.37 288.313 115.444 288.547 115.565C288.781 115.686 288.988 115.852 289.158 116.054Z" fill="#F4F1ED" stroke="#070707" stroke-width="2" stroke-linecap="round" stroke-linejoin="round"/>
<path d="M310.372 116.054L305.215 122.164L311.111 130.576L320.726 122.164L313.195 115.815C312.994 115.645 312.761 115.517 312.511 115.437C312.26 115.357 311.996 115.327 311.734 115.35C311.472 115.372 311.216 115.446 310.983 115.566C310.749 115.687 310.542 115.853 310.372 116.054Z" fill="#F4F1ED" stroke="#070707" stroke-width="2" stroke-linecap="round" stroke-linejoin="round"/>
<path d="M309.964 148.294H323.328V160.958C323.328 161.617 323.066 162.249 322.599 162.715C322.133 163.182 321.5 163.443 320.84 163.443H312.452C311.792 163.443 311.159 163.182 310.692 162.715C310.226 162.249 309.964 161.617 309.964 160.958V148.294Z" fill="#F4F1ED" stroke="#070707" stroke-width="2" stroke-linecap="round" stroke-linejoin="round"/>
<path d="M295.777 143.927C296.674 143.927 297.401 143.201 297.401 142.305C297.401 141.41 296.674 140.683 295.777 140.683C294.881 140.683 294.154 141.41 294.154 142.305C294.154 143.201 294.881 143.927 295.777 143.927Z" fill="#1C0E0C"/>
<path d="M295.777 156.34C296.674 156.34 297.401 155.614 297.401 154.718C297.401 153.822 296.674 153.096 295.777 153.096C294.881 153.096 294.154 153.822 294.154 154.718C294.154 155.614 294.881 156.34 295.777 156.34Z" fill="#1C0E0C"/>
<path d="M295.777 168.752C296.674 168.752 297.401 168.026 297.401 167.131C297.401 166.235 296.674 165.509 295.777 165.509C294.881 165.509 294.154 166.235 294.154 167.131C294.154 168.026 294.881 168.752 295.777 168.752Z" fill="#1C0E0C"/>
<path d="M295.777 181.165C296.674 181.165 297.401 180.439 297.401 179.544C297.401 178.648 296.674 177.922 295.777 177.922C294.881 177.922 294.154 178.648 294.154 179.544C294.154 180.439 294.881 181.165 295.777 181.165Z" fill="#1C0E0C"/>
<path d="M295.777 193.578C296.674 193.578 297.401 192.852 297.401 191.956C297.401 191.061 296.674 190.335 295.777 190.335C294.881 190.335 294.154 191.061 294.154 191.956C294.154 192.852 294.881 193.578 295.777 193.578Z" fill="#1C0E0C"/>
<path d="M347.31 108.181C356.233 108.181 363.466 100.955 363.466 92.0415C363.466 83.1279 356.233 75.9021 347.31 75.9021C338.388 75.9021 331.154 83.1279 331.154 92.0415C331.154 100.955 338.388 108.181 347.31 108.181Z" fill="#F4F1ED" stroke="#070707" stroke-width="2" stroke-linecap="round" stroke-linejoin="round"/>
<path d="M343.159 84.8199C341.088 84.8199 339.692 86.4221 339.692 88.7979C339.692 91.3307 340.966 92.8464 343.096 92.8464C345.227 92.8464 346.532 91.2757 346.532 88.7154C346.52 86.32 345.231 84.8199 343.159 84.8199ZM343.132 91.3424C341.709 91.3424 341.496 89.7324 341.496 88.7782C341.496 87.2075 342.078 86.3239 343.132 86.3239C344.472 86.3239 344.751 87.6355 344.751 88.7429C344.731 90.4746 344.193 91.3503 343.12 91.3503L343.132 91.3424Z" fill="#1C0E0C"/>
<path d="M351.968 90.5493C349.932 90.5493 348.505 92.1868 348.505 94.5272C348.505 97.0247 349.81 98.5719 351.909 98.5719C354.008 98.5719 355.345 97.0011 355.345 94.4408C355.345 92.0415 354.051 90.5493 351.968 90.5493ZM351.944 97.0679C350.521 97.0679 350.309 95.4618 350.309 94.5076C350.309 92.9368 350.907 92.0494 351.944 92.0494C353.285 92.0494 353.56 93.3649 353.56 94.4683C353.56 96.1215 352.986 97.0679 351.944 97.0679Z" fill="#1C0E0C"/>
<path d="M352.935 85.0084L343.91 98.4265H342.11L351.127 85.0084H352.935Z" fill="#1C0E0C"/>
<path d="M594.263 151.066H514.9C511.077 151.066 507.978 154.162 507.978 157.981V237.264C507.978 241.083 511.077 244.18 514.9 244.18H594.263C598.086 244.18 601.185 241.083 601.185 237.264V157.981C601.185 154.162 598.086 151.066 594.263 151.066Z" fill="#1C0E0C"/>
<path d="M590.387 147.147H511.024C507.201 147.147 504.102 150.243 504.102 154.062V233.345C504.102 237.164 507.201 240.261 511.024 240.261H590.387C594.21 240.261 597.309 237.164 597.309 233.345V154.062C597.309 150.243 594.21 147.147 590.387 147.147Z" fill="#C5DCDD" stroke="black" stroke-width="2" stroke-linecap="round" stroke-linejoin="round"/>
<path d="M576.283 182.952H533.783C532.342 182.952 531.173 184.119 531.173 185.559V222.499C531.173 223.939 532.342 225.107 533.783 225.107H576.283C577.725 225.107 578.893 223.939 578.893 222.499V185.559C578.893 184.119 577.725 182.952 576.283 182.952Z" fill="white"/>
<path d="M578.944 183.918V220.728C578.945 221.303 578.832 221.872 578.612 222.403C578.392 222.934 578.07 223.416 577.663 223.823C577.256 224.229 576.773 224.551 576.242 224.771C575.71 224.991 575.141 225.103 574.565 225.103H563.952C565.114 225.103 566.227 224.642 567.049 223.822C567.87 223.001 568.331 221.889 568.331 220.728V183.918C568.332 183.343 568.219 182.774 567.999 182.242C567.779 181.711 567.457 181.228 567.05 180.821C566.644 180.414 566.161 180.091 565.629 179.87C565.098 179.65 564.528 179.536 563.952 179.536H574.565C575.141 179.536 575.711 179.65 576.242 179.87C576.774 180.091 577.257 180.414 577.663 180.821C578.07 181.228 578.392 181.711 578.612 182.242C578.832 182.774 578.945 183.343 578.944 183.918V183.918Z" stroke="#070707" stroke-width="2" stroke-linecap="round" stroke-linejoin="round"/>
<path d="M568.343 183.918V220.728C568.343 221.889 567.882 223.001 567.06 223.822C566.239 224.642 565.125 225.103 563.964 225.103H530.552C529.977 225.103 529.407 224.991 528.875 224.771C528.344 224.551 527.86 224.229 527.453 223.823C527.046 223.417 526.723 222.934 526.503 222.403C526.283 221.872 526.169 221.303 526.169 220.728V183.918C526.169 182.756 526.631 181.642 527.453 180.821C528.275 179.999 529.389 179.537 530.552 179.536H563.964C564.54 179.536 565.109 179.65 565.641 179.87C566.173 180.091 566.655 180.414 567.062 180.821C567.469 181.228 567.791 181.711 568.011 182.242C568.231 182.774 568.343 183.343 568.343 183.918V183.918Z" stroke="#070707" stroke-width="2" stroke-linecap="round" stroke-linejoin="round"/>
<path d="M547.93 227.153V176.241" stroke="#070707" stroke-width="2" stroke-linecap="round" stroke-linejoin="round"/>
<path d="M524.33 202.209H580.536" stroke="#070707" stroke-width="2" stroke-linecap="round" stroke-linejoin="round"/>
<path d="M554.766 164.928H558.119C559.932 164.928 561.671 165.647 562.953 166.928C564.234 168.209 564.955 169.945 564.955 171.757V172.727C564.955 174.538 564.234 176.275 562.953 177.555C561.671 178.836 559.932 179.555 558.119 179.555H547.93V171.741C547.934 169.932 548.656 168.2 549.938 166.922C551.219 165.645 552.956 164.928 554.766 164.928V164.928Z" stroke="#070707" stroke-width="2" stroke-linecap="round" stroke-linejoin="round"/>
<path d="M547.852 179.54H538.551C537.12 179.54 535.747 178.972 534.735 177.96C533.723 176.949 533.154 175.578 533.154 174.148V173.382C533.154 171.952 533.723 170.581 534.735 169.57C535.747 168.559 537.12 167.991 538.551 167.991H542.459C543.89 167.991 545.263 168.559 546.275 169.57C547.287 170.581 547.856 171.952 547.856 173.382V179.54H547.852Z" stroke="#070707" stroke-width="2" stroke-linecap="round" stroke-linejoin="round"/>
<path d="M556.44 188.87L547.852 179.536L542.596 184.79" stroke="#070707" stroke-width="2" stroke-linecap="round" stroke-linejoin="round"/>
<path d="M638.178 295.668H573.547V309.903H638.178V295.668Z" fill="#1C0E0C"/>
</svg>
