<svg width="21" height="16" viewBox="0 0 21 16" fill="none" xmlns="http://www.w3.org/2000/svg">
<g clip-path="url(#clip0_1_2)">
<path d="M10.5 3.5C8.50664 3.5 6.89063 4.73125 6.89063 6.25C6.89063 7.76875 8.50664 9 10.5 9C12.4934 9 14.1094 7.76875 14.1094 6.25C14.1094 4.73125 12.4934 3.5 10.5 3.5ZM10.5 7.5C9.59517 7.5 8.85937 6.93906 8.85937 6.25C8.85937 5.55937 9.59353 5 10.5 5C11.4065 5 12.1406 5.56063 12.1406 6.25C12.1406 6.94063 11.4065 7.5 10.5 7.5ZM10.5 0C4.70039 0 0 3.58125 0 8C0 12.4187 4.70039 16 10.5 16C16.2997 16 21 12.4187 21 8C21 3.58125 16.2997 0 10.5 0ZM10.5 14.5C8.58334 14.5 6.81844 14.01 5.39356 13.1941C6.10312 12.1562 7.48125 11.5 9.03164 11.5H11.972C13.5203 11.5 14.8969 12.1566 15.6093 13.1941C14.1832 14.0094 12.4155 14.5 10.5 14.5ZM17.0707 12.1406C15.9633 10.8219 14.0766 10 11.9684 10H9.03164C6.92508 10 5.03877 10.8203 3.9293 12.14C2.70539 11.0156 1.96875 9.57187 1.96875 8C1.96875 4.41563 5.79592 1.5 10.5 1.5C15.2041 1.5 19.0313 4.41594 19.0313 8C19.0313 9.57187 18.293 11.0156 17.0707 12.1406Z" fill="#82AAE3"/>
</g>
<defs>
<clipPath id="clip0_1_2">
<rect width="21" height="16" fill="white"/>
</clipPath>
</defs>
</svg>
