<svg width="23" height="16" viewBox="0 0 23 16" fill="none" xmlns="http://www.w3.org/2000/svg">
<path d="M11.5 3.5C9.3168 3.5 7.54688 4.73125 7.54688 6.25C7.54688 7.76875 9.3168 9 11.5 9C13.6832 9 15.4531 7.76875 15.4531 6.25C15.4531 4.73125 13.6832 3.5 11.5 3.5ZM11.5 7.5C10.509 7.5 9.70312 6.93906 9.70312 6.25C9.70312 5.55937 10.5072 5 11.5 5C12.4928 5 13.2969 5.56063 13.2969 6.25C13.2969 6.94063 12.4928 7.5 11.5 7.5ZM11.5 0C5.14805 0 0 3.58125 0 8C0 12.4187 5.14805 16 11.5 16C17.852 16 23 12.4187 23 8C23 3.58125 17.852 0 11.5 0ZM11.5 14.5C9.4008 14.5 7.46781 14.01 5.90723 13.1941C6.68437 12.1562 8.19375 11.5 9.8918 11.5H13.1122C14.808 11.5 16.3156 12.1566 17.0959 13.1941C15.534 14.0094 13.5979 14.5 11.5 14.5ZM18.6965 12.1406C17.4836 10.8219 15.4172 10 13.1082 10H9.8918C7.58461 10 5.51865 10.8203 4.30352 12.14C2.96305 11.0156 2.15625 9.57187 2.15625 8C2.15625 4.41563 6.34791 1.5 11.5 1.5C16.6521 1.5 20.8438 4.41594 20.8438 8C20.8438 9.57187 20.0352 11.0156 18.6965 12.1406Z" fill="#82AAE3"/>
</svg>
