<?xml version="1.0" standalone="no"?>
<!DOCTYPE svg PUBLIC "-//W3C//DTD SVG 20010904//EN"
 "http://www.w3.org/TR/2001/REC-SVG-20010904/DTD/svg10.dtd">
<svg version="1.0" xmlns="http://www.w3.org/2000/svg"
 width="3000.000000pt" height="2000.000000pt" viewBox="0 0 3000.000000 2000.000000"
 preserveAspectRatio="xMidYMid meet">

<g transform="translate(0.000000,2000.000000) scale(0.100000,-0.100000)"
fill="#000000" stroke="none">
<path d="M25968 17795 c-134 -34 -216 -126 -257 -287 l-18 -70 -57 -23 c-163
-66 -277 -201 -312 -367 -23 -111 -3 -211 61 -294 26 -34 194 -169 196 -156 0
4 6 47 12 96 12 87 13 90 42 98 16 4 36 15 42 25 7 9 13 14 13 10 0 -4 9 1 20
11 23 19 24 19 133 31 82 8 100 19 91 56 -3 15 5 26 32 44 19 14 52 44 71 68
l36 44 26 -25 c15 -14 57 -41 94 -59 l67 -33 -35 -13 c-29 -10 -35 -17 -35
-40 0 -33 18 -41 91 -41 58 0 127 -24 161 -55 36 -33 78 -34 78 -2 0 25 -38
82 -71 108 -20 15 -17 16 62 23 46 3 112 13 147 20 58 13 63 12 56 -3 -17 -41
-16 -117 4 -169 12 -30 18 -61 15 -70 -4 -15 -3 -15 6 -2 9 13 14 11 34 -10
21 -23 68 -47 120 -64 14 -4 17 -19 19 -88 0 -46 1 -89 1 -95 -1 -7 2 -11 6
-9 3 2 17 -13 30 -35 16 -24 39 -44 63 -54 50 -20 48 -20 48 17 0 63 87 148
153 148 39 0 102 -41 131 -85 28 -43 32 -132 9 -183 -11 -23 -23 -39 -28 -35
-4 5 -5 2 0 -6 10 -17 -72 -96 -120 -117 -19 -8 -55 -14 -79 -14 -53 0 -48 11
-70 -150 -23 -161 -30 -270 -19 -270 19 0 80 77 93 116 26 87 32 95 119 153
279 189 324 395 160 736 -26 52 -28 63 -18 93 14 44 6 129 -17 178 -10 20 -50
72 -90 114 -40 43 -79 91 -87 106 -8 16 -22 78 -31 139 -10 70 -25 129 -42
162 -32 67 -107 133 -200 180 -120 59 -254 58 -303 -1 -11 -13 -19 -10 -59 21
-106 81 -262 131 -432 138 -72 3 -123 0 -162 -10z"/>
<path d="M4790 17640 c12 -9 8 -10 -16 -5 -35 7 -214 -31 -214 -46 0 -4 -7 -5
-17 -2 -12 5 -14 3 -8 -7 5 -9 4 -11 -3 -6 -23 14 -249 -105 -237 -124 3 -5 0
-8 -7 -5 -14 6 -178 -130 -178 -147 0 -7 12 -1 28 13 l27 24 -24 -27 c-13 -15
-28 -25 -32 -22 -5 2 -20 -9 -35 -25 -26 -30 -32 -46 -15 -46 5 0 12 -3 15 -8
3 -4 3 -5 -1 -2 -3 3 -13 -1 -21 -8 -13 -9 -14 -9 -8 1 4 6 3 12 -2 12 -15 0
-44 -49 -36 -62 4 -6 3 -8 -4 -5 -5 4 -22 -13 -36 -37 -28 -48 -32 -61 -16
-51 6 3 10 1 10 -5 0 -7 -7 -10 -15 -6 -18 7 -37 -26 -28 -50 4 -11 3 -15 -4
-11 -13 8 -26 -20 -17 -35 4 -6 -1 -17 -11 -24 -15 -11 -16 -16 -5 -29 7 -8
16 -12 21 -9 5 3 6 -2 2 -12 -5 -15 -7 -15 -15 0 -5 9 -12 16 -17 16 -13 0
-43 -109 -36 -133 5 -16 4 -18 -3 -8 -8 11 -12 2 -17 -35 -11 -77 -55 -227
-95 -318 -11 -27 -18 -56 -16 -63 3 -8 1 -11 -4 -8 -12 8 -31 -40 -24 -59 3
-8 1 -17 -5 -21 -7 -4 -9 1 -5 12 3 10 -7 -4 -21 -32 -15 -27 -28 -54 -29 -60
-1 -5 -7 -20 -14 -31 -6 -12 -9 -24 -7 -28 3 -3 2 -4 -2 -1 -4 3 -14 -9 -23
-27 -9 -18 -35 -68 -58 -111 -23 -43 -37 -75 -32 -72 6 3 7 -1 4 -9 -3 -9 -9
-14 -13 -11 -11 6 -43 -64 -35 -77 4 -7 2 -8 -4 -4 -11 7 -13 2 -16 -32 -1 -7
-7 -17 -15 -21 -7 -5 -10 -14 -7 -20 4 -6 3 -11 -2 -11 -12 0 -65 -110 -57
-118 3 -3 5 1 5 8 0 7 2 11 5 8 8 -8 -6 -39 -15 -33 -10 6 -22 -24 -14 -36 3
-5 0 -9 -5 -9 -6 0 -11 -6 -11 -14 0 -7 -9 -34 -21 -60 -12 -28 -18 -55 -14
-68 4 -12 3 -18 -2 -15 -30 18 -69 -376 -41 -411 11 -13 11 -14 0 -8 -10 6
-12 0 -7 -31 14 -76 46 -198 55 -207 22 -22 6 -46 -77 -121 -148 -131 -873
-867 -873 -885 0 -27 65 -181 126 -301 134 -261 334 -503 477 -576 l46 -23
133 108 c337 275 333 271 340 254 9 -19 298 -1189 298 -1204 0 -6 -23 -51 -52
-102 -89 -157 -128 -229 -126 -231 17 -11 79 -35 90 -35 8 0 42 -9 76 -21 35
-12 73 -18 86 -15 13 3 53 36 90 72 208 209 304 540 311 1079 6 466 -36 810
-149 1225 -35 129 -87 323 -116 430 -56 210 -113 415 -129 468 -12 40 0 48 87
56 34 3 71 10 82 16 24 13 40 13 20 0 -19 -13 1 -13 33 -1 31 12 29 16 72
-159 48 -196 266 -1055 269 -1058 2 -1 250 -1 552 0 l550 3 -128 465 c-71 256
-139 506 -152 555 -18 66 -25 83 -29 65 -3 -14 -10 -52 -16 -85 -21 -116 -85
-210 -174 -257 -64 -35 -179 -32 -272 7 -141 58 -280 154 -472 325 l-114 103
7 51 c3 28 10 61 15 73 5 13 14 84 20 159 15 172 -1 494 -36 739 -14 94 -25
172 -25 175 0 3 -23 6 -52 8 -84 5 -159 53 -209 135 -28 45 -31 58 -30 125 1
55 5 80 17 93 9 10 14 25 11 33 -4 10 -1 13 7 10 7 -3 16 2 20 11 8 21 83 55
124 55 37 0 72 -15 72 -31 0 -6 12 -35 26 -65 23 -48 28 -53 42 -42 15 12 16
11 3 -5 -12 -15 -10 -20 13 -42 14 -13 26 -29 26 -35 0 -5 5 -10 11 -10 8 0
10 12 6 35 -3 19 -2 35 4 35 5 0 9 8 9 18 0 9 9 30 19 46 11 17 18 33 15 38
-3 4 2 5 10 2 9 -3 16 -2 16 3 0 5 15 24 33 43 56 58 122 154 141 206 11 27
22 54 26 59 14 18 52 206 47 231 -2 13 -2 24 0 24 3 0 27 -25 55 -55 47 -52
103 -92 121 -87 11 3 9 -2 -18 -38 -14 -19 -25 -44 -25 -57 0 -34 31 -29 87
13 44 34 50 36 93 28 70 -13 324 -10 436 5 115 16 154 9 216 -40 40 -32 75
-37 84 -14 7 16 -39 90 -64 104 -11 6 -5 13 22 29 39 23 41 23 50 -31 4 -21
10 -36 14 -33 4 2 8 -4 8 -14 0 -10 -5 -16 -10 -13 -5 4 -7 -1 -3 -10 12 -32
37 -233 46 -367 13 -200 13 -596 0 -664 -28 -152 -174 -273 -439 -365 -69 -24
-87 -35 -94 -56 -12 -31 20 -316 36 -326 6 -4 7 -12 4 -18 -4 -6 0 -39 10 -73
9 -35 19 -75 21 -90 3 -15 12 -33 22 -41 23 -20 149 -60 167 -53 8 3 12 2 9
-4 -5 -8 60 -27 78 -22 4 1 7 -4 8 -10 0 -7 2 -22 4 -33 6 -31 97 -481 156
-769 l53 -259 69 -131 c38 -72 93 -178 122 -236 57 -112 84 -154 85 -132 0 17
18 11 135 -44 52 -24 96 -44 98 -44 3 0 8 12 12 28 3 15 13 41 21 57 7 17 38
100 68 185 30 85 73 207 96 270 133 368 190 534 187 543 -2 6 -50 32 -108 58
l-104 48 0 676 c0 371 3 675 8 675 4 0 365 0 802 0 750 0 795 -1 795 -17 1
-31 40 -107 73 -142 33 -34 118 -81 150 -81 15 0 17 -7 13 -45 -2 -25 -1 -47
3 -49 3 -2 21 9 39 25 30 27 33 34 30 82 l-3 52 -54 7 c-66 8 -127 48 -158
103 -40 71 -40 70 116 67 137 -3 140 -3 154 20 8 13 17 35 21 50 l6 27 -147 0
c-103 0 -150 -4 -155 -12 -5 -8 -8 -6 -8 6 0 25 49 92 81 111 74 44 164 38
231 -15 l37 -29 20 29 21 29 -31 26 c-50 42 -98 59 -169 59 -110 0 -192 -51
-249 -156 l-26 -48 -852 1 -853 0 0 -701 c0 -557 -3 -700 -12 -696 -57 23
-375 170 -381 176 -4 4 4 57 19 117 24 100 26 120 20 249 -3 77 -6 149 -6 160
0 11 -14 94 -31 185 -17 91 -33 180 -36 198 -4 24 -8 30 -15 20 -5 -8 -6 5 -2
32 4 34 3 41 -5 30 -9 -12 -10 -9 -5 12 3 16 3 36 -2 45 -4 10 -8 29 -9 43 -1
14 -16 133 -33 265 -17 132 -33 287 -37 345 -3 58 -8 132 -11 165 -2 33 -7
139 -9 235 -5 170 -16 288 -36 380 -23 104 -32 129 -42 123 -6 -4 -8 0 -4 11
4 10 1 27 -5 39 -13 23 -15 28 -17 50 -1 8 -4 8 -12 -3 -9 -13 -10 -12 -5 2
14 45 -141 238 -184 230 -12 -2 -12 -1 -2 6 11 7 2 17 -33 41 -25 17 -51 28
-57 25 -7 -4 -8 -2 -4 5 10 15 -137 84 -181 84 -17 1 -29 5 -26 11 4 5 -3 7
-15 4 -12 -3 -23 -1 -24 4 -2 6 -61 12 -133 15 -98 3 -126 2 -115 -7z m118 -7
c-10 -2 -28 -2 -40 0 -13 2 -5 4 17 4 22 1 32 -1 23 -4z m-391 -79 c-3 -3 -12
-4 -19 -1 -8 3 -5 6 6 6 11 1 17 -2 13 -5z m38 -4 c-3 -5 -12 -10 -18 -10 -7
0 -6 4 3 10 19 12 23 12 15 0z m-186 -63 c-2 -2 -17 -11 -34 -21 l-30 -17 24
20 c13 12 28 21 34 21 6 0 8 -1 6 -3z m-9 -31 c0 -2 -7 -7 -16 -10 -8 -3 -12
-2 -9 4 6 10 25 14 25 6z m1178 -191 c-3 -3 -9 2 -12 12 -6 14 -5 15 5 6 7 -7
10 -15 7 -18z m-1545 -150 c-3 -9 -8 -14 -10 -11 -3 3 -2 9 2 15 9 16 15 13 8
-4z m1634 -67 c-3 -8 -6 -5 -6 6 -1 11 2 17 5 13 3 -3 4 -12 1 -19z m-102 -98
c-3 -5 -12 -10 -18 -10 -7 0 -6 4 3 10 19 12 23 12 15 0z m62 -12 c-3 -8 -6
-5 -6 6 -1 11 2 17 5 13 3 -3 4 -12 1 -19z m-112 -6 c-3 -3 -11 0 -18 7 -9 10
-8 11 6 5 10 -3 15 -9 12 -12z m172 -14 c-3 -8 -6 -5 -6 6 -1 11 2 17 5 13 3
-3 4 -12 1 -19z m-177 -3 c0 -2 -6 -5 -13 -8 -8 -3 -14 1 -14 8 0 7 6 11 14 8
7 -3 13 -6 13 -8z m183 -45 c-3 -12 -8 -19 -11 -16 -5 6 5 36 12 36 2 0 2 -9
-1 -20z m-1443 -420 c0 -5 -5 -10 -11 -10 -5 0 -7 5 -4 10 3 6 8 10 11 10 2 0
4 -4 4 -10z m-482 -94 c-7 -8 -15 -12 -17 -11 -5 6 10 25 20 25 5 0 4 -6 -3
-14z m1935 -441 c-3 -9 -8 -14 -10 -11 -3 3 -2 9 2 15 9 16 15 13 8 -4z
m-1566 -17 c-3 -8 -6 -5 -6 6 -1 11 2 17 5 13 3 -3 4 -12 1 -19z m1600 -125
c-3 -10 -5 -2 -5 17 0 19 2 27 5 18 2 -10 2 -26 0 -35z m-1590 -5 c-3 -8 -6
-5 -6 6 -1 11 2 17 5 13 3 -3 4 -12 1 -19z m1670 -300 c-3 -8 -6 -5 -6 6 -1
11 2 17 5 13 3 -3 4 -12 1 -19z m10 -130 c-3 -8 -6 -5 -6 6 -1 11 2 17 5 13 3
-3 4 -12 1 -19z m-2530 -85 c-3 -10 -5 -4 -5 12 0 17 2 24 5 18 2 -7 2 -21 0
-30z m2600 -140 c-3 -10 -5 -4 -5 12 0 17 2 24 5 18 2 -7 2 -21 0 -30z m-1910
-179 c-3 -3 -12 -4 -19 -1 -8 3 -5 6 6 6 11 1 17 -2 13 -5z m113 2 c0 -2 -7
-7 -16 -10 -8 -3 -12 -2 -9 4 6 10 25 14 25 6z m-823 -28 c-3 -8 -6 -5 -6 6
-1 11 2 17 5 13 3 -3 4 -12 1 -19z m2240 -180 c-3 -8 -6 -5 -6 6 -1 11 2 17 5
13 3 -3 4 -12 1 -19z m30 -40 c-3 -7 -5 -2 -5 12 0 14 2 19 5 13 2 -7 2 -19 0
-25z m-17 12 c0 -5 -2 -10 -4 -10 -3 0 -8 5 -11 10 -3 6 -1 10 4 10 6 0 11 -4
11 -10z m87 -36 c-3 -3 -12 -4 -19 -1 -8 3 -5 6 6 6 11 1 17 -2 13 -5z"/>
<path d="M25940 16715 c0 -24 -44 -229 -58 -268 -13 -39 -14 -53 -4 -79 6 -17
10 -34 8 -37 -9 -14 105 -11 134 4 42 22 38 27 -17 20 -35 -4 -53 -1 -68 10
-19 15 -19 16 -1 83 22 83 34 256 17 266 -6 4 -11 4 -11 1z"/>
<path d="M5110 16625 c0 -44 8 -111 16 -150 24 -103 23 -117 -7 -132 -18 -9
-35 -10 -58 -3 -46 13 -36 -11 11 -27 50 -17 89 -4 109 35 15 30 15 36 -2 98
-10 37 -26 106 -35 153 -9 47 -21 90 -25 96 -5 5 -9 -25 -9 -70z"/>
<path d="M4750 16677 c0 -13 46 -67 58 -67 4 0 5 -27 4 -61 -4 -70 2 -101 24
-123 24 -24 42 -19 65 17 16 26 19 45 17 99 -4 82 -23 108 -78 108 -24 0 -43
7 -55 20 -21 23 -35 26 -35 7z"/>
<path d="M5420 16669 c-14 -11 -39 -21 -55 -23 -17 -2 -34 -4 -38 -5 -14 -2
-37 -70 -37 -111 0 -48 23 -108 44 -116 43 -17 84 69 71 148 -6 35 -3 42 29
75 20 21 36 41 36 45 0 14 -24 8 -50 -13z"/>
<path d="M25774 16615 c-27 -65 -9 -186 30 -201 44 -17 83 59 73 143 -10 92
-74 128 -103 58z"/>
<path d="M26265 16626 c-23 -34 -29 -114 -13 -161 17 -50 59 -70 84 -39 15 19
15 18 11 -4 -3 -12 -2 -20 3 -17 4 3 7 52 6 111 -1 92 -3 107 -20 120 -29 21
-53 17 -71 -10z"/>
<path d="M27195 16448 c-22 -5 -51 -20 -65 -33 -15 -14 -30 -22 -34 -18 -4 4
-4 -1 0 -11 5 -13 4 -17 -4 -12 -8 4 -10 2 -6 -7 3 -8 1 -18 -5 -22 -14 -8
-14 -52 0 -60 6 -4 29 8 51 26 46 36 66 33 83 -16 12 -34 -12 -55 -64 -55 -27
0 -32 -3 -21 -10 8 -5 34 -10 57 -10 51 0 78 30 68 76 -14 59 -17 66 -48 84
l-31 19 28 11 c38 14 63 5 82 -32 19 -36 28 -31 19 10 -11 53 -48 73 -110 60z"/>
<path d="M3945 16430 c-27 -10 -41 -28 -49 -62 -8 -36 0 -36 18 1 20 38 40 44
84 25 l37 -16 -31 -9 c-31 -9 -46 -31 -59 -90 -10 -40 23 -73 70 -71 21 1 43
7 49 13 8 9 5 10 -13 6 -61 -15 -92 35 -52 84 20 25 13 28 89 -27 28 -21 46
-7 37 28 -10 37 -64 99 -101 114 -37 16 -50 16 -79 4z"/>
<path d="M27085 16429 c-4 -6 -5 -12 -2 -15 2 -3 7 2 10 11 7 17 1 20 -8 4z"/>
<path d="M25847 16181 c-3 -12 -2 -19 1 -17 4 2 18 -11 32 -30 34 -46 119 -87
187 -90 29 -1 53 1 53 6 0 4 12 11 26 14 30 8 124 93 124 112 0 20 -12 17 -37
-10 -36 -37 -124 -76 -174 -76 -64 1 -126 30 -183 88 -23 24 -23 24 -29 3z"/>
<path d="M4900 16172 c0 -5 21 -30 47 -56 103 -103 242 -95 342 20 39 44 33
56 -10 20 -90 -76 -184 -91 -274 -44 -27 14 -59 35 -69 47 -20 21 -36 27 -36
13z"/>
<path d="M26000 15979 c0 -4 17 -11 39 -16 29 -8 45 -7 65 4 14 7 26 15 26 17
0 1 -29 2 -65 2 -36 -1 -65 -4 -65 -7z"/>
<path d="M5060 15970 c18 -12 68 -12 95 0 14 6 0 9 -45 9 -45 1 -60 -2 -50 -9z"/>
<path d="M10401 15939 c-49 -10 -116 -46 -147 -81 -12 -12 -33 -44 -46 -71
l-24 -47 -511 0 -512 0 -31 -44 c-16 -25 -30 -47 -30 -50 0 -4 243 -5 540 -4
l541 3 10 -40 c24 -86 70 -143 149 -179 30 -14 61 -26 68 -26 9 0 12 -54 12
-234 l0 -234 -67 -7 c-226 -21 -390 -59 -556 -127 -118 -48 -239 -111 -238
-123 1 -5 29 -7 63 -6 44 2 78 11 117 30 140 70 324 123 511 147 306 40 669
-19 930 -151 38 -19 65 -25 115 -25 37 0 64 4 61 9 -9 14 -224 116 -304 145
-146 52 -306 85 -489 102 l-73 6 0 269 0 269 -40 0 c-51 0 -108 28 -148 75
-30 33 -50 80 -40 91 8 8 2182 4 2188 -4 4 -4 12 -27 19 -52 18 -62 98 -141
169 -166 l52 -19 0 -232 0 -232 -42 -5 c-24 -3 -77 -8 -118 -11 -150 -12 -354
-67 -514 -138 l-80 -35 -66 33 -67 34 -64 -77 c-35 -42 -81 -95 -101 -117 -20
-22 -119 -137 -219 -255 -286 -336 -410 -480 -459 -530 -42 -43 -101 -112
-363 -420 -54 -63 -112 -130 -129 -149 -16 -18 -26 -37 -21 -41 4 -4 55 -44
113 -89 58 -45 112 -88 121 -95 25 -21 249 -168 294 -194 22 -12 87 -45 145
-73 58 -28 112 -54 120 -58 8 -4 54 -18 101 -31 l86 -22 6 -127 c4 -69 7 -261
7 -426 0 -165 3 -451 7 -637 l6 -336 66 -21 c206 -63 459 -110 746 -137 134
-13 243 -15 510 -11 354 6 542 22 795 67 95 17 419 95 426 103 1 1 5 199 9
441 l8 438 31 -5 c17 -3 97 -20 178 -36 927 -192 2167 -150 3331 111 75 17
137 35 137 39 0 5 -75 214 -166 466 -91 252 -241 667 -334 923 -92 256 -198
548 -235 650 -37 102 -83 228 -102 280 -96 267 -116 320 -122 320 -4 0 -47
-13 -95 -30 l-88 -29 -79 39 c-215 109 -384 154 -691 186 l-58 5 0 270 0 269
-42 0 c-84 0 -172 67 -184 142 l-6 33 495 -3 c446 -2 495 -1 501 14 4 10 -6
28 -26 50 l-33 35 -237 -3 -237 -3 -16 40 c-54 143 -234 212 -371 142 -60 -30
-117 -90 -134 -141 -8 -27 -17 -36 -33 -36 -12 0 -556 0 -1209 0 -1122 0
-1187 -1 -1197 -17 -6 -10 -11 -13 -11 -6 0 6 -6 13 -12 16 -7 2 -5 3 5 2 22
-4 22 17 -2 63 -80 155 -291 194 -428 78 -18 -15 -48 -58 -67 -96 -21 -43 -36
-64 -40 -55 -5 13 -121 15 -860 15 l-854 0 -12 34 c-36 111 -184 190 -309 165z
m154 -91 c35 -19 57 -42 78 -83 l15 -30 -189 0 c-131 0 -189 3 -189 11 0 22
46 78 79 98 62 36 141 38 206 4z m2271 -1 c39 -20 84 -72 84 -97 0 -10 6 -21
13 -23 7 -3 5 -6 -5 -6 -10 -1 -18 4 -18 10 0 7 -58 9 -180 7 -99 -2 -180 1
-180 5 0 21 38 70 73 94 62 43 142 47 213 10z m2961 -3 c37 -21 83 -77 83
-100 0 -5 -82 -8 -182 -7 -203 2 -210 5 -162 62 65 78 172 97 261 45z m153
-120 c0 -2 -7 -4 -15 -4 -8 0 -15 4 -15 10 0 5 7 7 15 4 8 -4 15 -8 15 -10z
m-2903 0 c-3 -3 -12 -4 -19 -1 -8 3 -5 6 6 6 11 1 17 -2 13 -5z m-130 -20 c-3
-3 -12 -4 -19 -1 -8 3 -5 6 6 6 11 1 17 -2 13 -5z m2488 -60 c9 3 17 -11 25
-44 22 -91 92 -162 188 -191 l42 -12 0 -233 0 -233 -57 -6 c-180 -18 -248 -29
-338 -51 -130 -33 -270 -85 -371 -138 l-80 -43 -115 33 c-63 18 -119 33 -126
34 -6 0 -65 -160 -133 -366 l-122 -366 -28 28 c-16 16 -75 86 -132 155 -56 69
-192 232 -300 362 l-198 236 -67 -33 -67 -33 -64 29 c-157 70 -378 130 -527
143 -38 3 -91 8 -117 11 l-48 6 0 269 0 269 -38 0 c-77 0 -173 75 -188 145
l-6 30 1421 -3 c1351 -2 1421 -1 1422 15 1 17 2 17 6 0 3 -10 11 -16 18 -13z
m-2452 -799 c63 -8 158 -26 210 -40 114 -29 282 -95 270 -105 -14 -12 -154
-67 -253 -98 -133 -42 -289 -73 -400 -79 -162 -9 -451 53 -664 143 l-89 37 52
23 c121 54 307 103 461 123 107 14 291 12 413 -4z m2927 4 c182 -22 361 -71
500 -136 l75 -35 -70 -19 c-157 -41 -342 -61 -603 -66 -307 -7 -571 16 -812
68 l-55 12 75 34 c268 123 608 178 890 142z"/>
<path d="M8480 15689 c0 -43 2 -48 23 -46 17 1 107 76 107 89 0 2 -29 4 -65 4
l-65 0 0 -47z"/>
<path d="M8945 15708 c-8 -15 -23 -34 -32 -43 -8 -9 -13 -18 -11 -20 6 -7 58
18 58 28 0 5 -5 5 -12 1 -7 -4 -8 -3 -4 4 4 6 12 9 19 6 7 -2 22 5 34 16 12
11 27 20 32 20 5 0 12 4 16 9 3 6 -14 9 -39 8 -37 -2 -47 -7 -61 -29z"/>
<path d="M26812 15603 c-85 -86 -179 -135 -337 -178 -92 -25 -111 -27 -231
-23 l-131 5 -7 -106 c-4 -58 -11 -125 -15 -148 l-8 -42 37 -6 c46 -8 170 9
236 31 61 20 135 60 194 103 65 47 190 170 190 187 0 3 13 19 30 37 16 18 30
38 30 45 0 6 4 12 8 12 5 0 17 17 29 38 11 20 30 54 41 75 40 69 27 63 -66
-30z"/>
<path d="M16490 15650 c0 -5 5 -10 11 -10 5 0 7 5 4 10 -3 6 -8 10 -11 10 -2
0 -4 -4 -4 -10z"/>
<path d="M8482 14875 c-7 -14 -12 -27 -12 -29 0 -2 28 -9 63 -15 81 -15 277
-72 277 -80 0 -8 -47 -35 -134 -78 -81 -40 -226 -89 -294 -99 -76 -11 -85 -18
-142 -108 -108 -170 -357 -508 -484 -657 -17 -19 -50 -58 -73 -85 -22 -27 -49
-58 -60 -69 -10 -11 -73 -81 -139 -155 -159 -176 -356 -368 -420 -408 -125
-79 -328 -113 -465 -78 -67 17 -183 68 -282 123 -33 18 -62 33 -66 33 -4 0 -8
-21 -9 -47 -2 -27 -7 -82 -12 -123 -60 -461 -112 -1338 -141 -2341 l-12 -415
42 -150 c24 -82 46 -153 49 -159 3 -5 7 -18 8 -30 2 -11 46 -166 99 -345 52
-179 119 -407 148 -507 l52 -183 233 0 234 0 33 33 c24 24 35 45 39 78 3 24
19 409 36 854 16 446 33 845 36 888 l6 77 677 -2 677 -3 -4 27 c-2 15 1 94 7
175 14 182 28 384 36 523 4 58 13 182 20 275 8 94 17 220 20 280 4 61 9 118
11 128 5 16 -6 17 -135 17 -78 0 -141 3 -141 8 0 4 13 48 29 97 15 50 42 135
59 190 50 164 109 354 142 460 121 385 153 499 166 589 9 55 22 135 30 176 11
52 12 76 5 78 -19 6 -13 26 38 128 73 149 184 310 268 392 20 18 31 37 27 44
-4 6 -3 8 2 5 6 -3 43 20 83 52 40 32 108 77 151 100 107 57 109 61 56 99 -56
40 -232 132 -319 167 -61 25 -68 26 -82 11 -21 -21 -16 -21 -121 14 -104 36
-238 70 -275 70 -18 0 -29 -8 -37 -25z"/>
<path d="M7419 14796 c-130 -56 -359 -189 -359 -207 0 -5 -3 -8 -7 -7 -14 5
-155 -113 -243 -202 -47 -47 -116 -125 -154 -173 -55 -71 -65 -91 -56 -102 7
-8 15 -14 18 -13 4 1 26 -8 50 -21 24 -12 47 -21 51 -19 5 2 37 28 72 59 54
48 128 110 249 212 48 39 155 132 160 138 3 3 75 63 160 134 85 71 166 139
179 152 13 13 39 33 58 44 42 26 36 35 -12 19 -31 -10 -39 -9 -54 4 -23 21
-24 21 -112 -18z m-304 -226 c3 -6 -1 -7 -9 -4 -18 7 -21 14 -7 14 6 0 13 -4
16 -10z"/>
<path d="M20247 14325 c10 -22 21 -42 26 -43 4 -2 5 -7 2 -11 -2 -5 9 -44 26
-87 17 -43 32 -86 34 -94 2 -8 8 -27 14 -43 10 -26 5 -34 -78 -138 -374 -463
-613 -977 -697 -1496 -9 -57 -18 -195 -21 -328 -3 -138 -9 -234 -16 -240 -7
-7 -8 -6 -3 2 8 15 -28 106 -39 96 -4 -4 -5 -2 -1 4 4 7 -11 68 -32 135 -105
327 -143 542 -146 820 0 87 -2 158 -2 158 -3 0 -54 -129 -80 -197 -13 -35 -20
-63 -17 -63 3 0 1 -6 -5 -13 -6 -7 -15 -31 -21 -52 -5 -22 -18 -76 -29 -120
-68 -265 -78 -603 -26 -905 27 -162 91 -383 107 -373 6 3 7 1 3 -6 -11 -16 53
-173 67 -164 6 4 7 1 2 -6 -9 -16 65 -162 78 -154 6 3 7 1 3 -6 -7 -11 70
-143 118 -202 12 -14 32 -41 46 -60 32 -43 113 -132 164 -178 22 -20 51 -47
66 -61 69 -63 135 -115 143 -112 5 1 6 -2 2 -7 -6 -10 34 -37 48 -33 5 1 6 -2
2 -7 -3 -6 4 -15 15 -21 11 -6 30 -20 42 -30 38 -34 92 -83 144 -130 l48 -45
-337 -3 -337 -2 0 -110 0 -109 58 -3 57 -3 32 -250 c18 -137 62 -479 98 -760
36 -280 65 -514 65 -519 0 -4 -6 -6 -14 -3 -19 8 -305 11 -312 4 -6 -5 11 -39
36 -72 14 -18 14 -19 -3 -6 -17 14 -18 10 -15 -75 l3 -89 87 0 c85 0 86 0 70
19 -25 29 36 -15 131 -93 l77 -64 0 -150 c0 -83 2 -148 4 -146 2 2 7 49 10
105 4 55 10 113 14 129 l8 29 22 -22 c13 -13 20 -28 16 -34 -4 -7 -3 -8 5 -4
6 4 8 13 4 19 -4 7 1 6 10 -2 13 -10 14 -17 7 -26 -8 -10 -8 -15 1 -21 7 -4 9
-3 5 4 -12 19 15 25 32 7 11 -11 12 -15 3 -10 -10 6 -12 4 -7 -4 5 -7 10 -10
13 -7 10 9 64 -28 59 -40 -3 -7 2 -15 10 -18 9 -4 12 -2 8 5 -4 8 0 7 15 0 11
-7 21 -14 21 -17 0 -3 -6 -2 -12 2 -9 5 -9 2 1 -9 15 -18 26 -23 16 -7 -10 16
11 12 25 -5 7 -8 18 -15 25 -15 7 0 23 -10 36 -22 14 -13 27 -23 29 -24 20 -4
120 -68 120 -77 0 -6 2 -8 5 -5 3 3 83 -33 178 -79 282 -139 520 -230 768
-292 l113 -29 135 -321 c75 -177 141 -321 148 -321 7 0 108 126 224 280 l212
280 161 2 c89 2 186 3 218 3 31 0 54 3 51 8 -2 4 11 7 30 7 18 0 78 7 133 15
54 8 115 17 134 19 52 8 309 72 445 112 154 45 312 101 467 165 68 28 130 53
139 56 14 4 163 -84 374 -222 44 -29 94 -59 110 -68 75 -41 73 -8 16 -369 -29
-178 -77 -476 -107 -663 -30 -187 -72 -450 -94 -585 -21 -135 -112 -697 -200
-1250 -89 -553 -163 -1013 -166 -1022 -5 -17 22 -18 468 -18 l473 0 34 132
c18 73 69 270 112 438 166 648 457 1790 790 3095 161 632 150 588 155 582 2
-2 5 -796 7 -1763 l2 -1759 83 -3 82 -3 0 1887 c0 1038 2 1889 5 1892 3 3 5
71 5 151 l0 146 174 0 c96 0 176 -2 179 -5 3 -3 12 -756 22 -1675 9 -918 20
-1993 24 -2387 4 -395 9 -720 12 -723 3 -2 212 -5 465 -5 l459 -1 7 58 c4 32
61 519 127 1083 235 2000 374 3237 480 4290 110 1082 128 1385 95 1575 -41
236 -140 572 -279 947 -42 115 -48 126 -68 121 -12 -2 -41 -9 -64 -13 -24 -5
-68 -17 -98 -26 -31 -8 -63 -13 -71 -10 -8 3 -13 2 -10 -2 4 -6 -104 -30 -219
-47 -16 -3 -97 -16 -180 -29 -82 -13 -222 -31 -309 -40 -88 -9 -160 -17 -161
-18 0 -2 -17 -53 -37 -115 -64 -197 -169 -382 -283 -500 l-60 -63 -345 65
c-190 36 -355 67 -366 70 -21 5 -46 52 -73 137 -11 33 -41 61 -41 38 0 -6 -7
-10 -15 -10 -8 0 -15 5 -15 11 0 19 21 50 30 44 8 -5 5 73 -3 81 -1 2 -30 -3
-62 -11 -69 -16 -145 -19 -145 -6 0 14 37 40 118 86 57 32 72 45 72 64 0 23
-2 23 -46 17 -26 -3 -61 -6 -78 -6 l-31 0 -62 -182 c-80 -236 -121 -370 -181
-598 -118 -442 -158 -643 -277 -1385 -46 -291 -87 -543 -90 -560 l-5 -30 -210
0 c-116 0 -210 1 -210 2 0 2 17 11 39 22 41 21 87 70 102 108 4 12 9 374 10
803 1 742 0 781 -18 811 -31 54 -84 90 -144 98 -60 8 -109 32 -129 65 -9 14
-14 68 -16 174 -3 127 -1 154 11 158 9 4 15 20 15 41 0 28 -3 34 -16 29 -9 -3
-101 -6 -205 -6 l-189 0 0 -30 c0 -20 5 -30 15 -30 13 0 15 -22 15 -137 0
-211 -17 -246 -129 -264 -77 -12 -135 -49 -164 -103 -21 -39 -22 -52 -20 -266
l1 -225 42 -105 c23 -58 44 -110 47 -117 3 -8 -11 -13 -44 -15 l-48 -3 0 -430
c0 -388 2 -433 17 -460 29 -50 54 -74 100 -95 l43 -20 -40 0 c-22 0 -838 -1
-1813 -3 l-1772 -2 0 283 0 282 405 0 405 0 0 225 0 225 -96 0 c-73 0 -95 3
-91 13 2 6 42 105 88 220 l84 207 362 0 362 0 3 38 3 37 53 3 52 3 0 110 0
109 -296 0 c-338 0 -313 -11 -239 99 40 61 100 137 373 475 255 316 371 555
434 891 30 160 32 518 5 693 -45 284 -133 598 -244 872 -52 127 -204 443 -210
437 -1 -2 6 -50 18 -107 124 -643 11 -1305 -332 -1946 -80 -150 -98 -178 -99
-153 0 9 11 65 24 125 71 325 106 618 106 896 0 277 -25 458 -92 673 -37 121
-48 146 -59 139 -5 -3 -6 1 -3 9 7 19 -62 157 -133 267 -56 86 -111 157 -218
284 -33 39 -93 110 -133 159 -42 50 -78 85 -84 81 -6 -4 -8 -3 -5 3 4 6 -15
38 -41 70 -69 87 -112 151 -145 213 -36 67 -56 90 -30 35z m157 -442 c158
-492 186 -888 90 -1313 -14 -63 -60 -234 -101 -380 -96 -337 -117 -420 -143
-555 -31 -163 -35 -217 -35 -474 l1 -233 -34 98 c-307 908 -275 1899 90 2769
53 126 86 195 93 195 2 0 20 -48 39 -107z m6085 -4895 c4 -343 9 -629 11 -637
3 -7 -1 -16 -8 -18 -7 -3 -11 1 -10 9 2 10 -29 13 -163 13 l-166 0 13 55 c8
30 61 240 119 465 58 226 124 485 147 577 23 92 44 165 47 163 2 -3 7 -285 10
-627z m-1259 -638 c0 -5 -5 -10 -11 -10 -5 0 -7 5 -4 10 3 6 8 10 11 10 2 0 4
-4 4 -10z m-5600 -10 c0 -5 -2 -10 -4 -10 -3 0 -8 5 -11 10 -3 6 -1 10 4 10 6
0 11 -4 11 -10z m6557 -6 c-3 -3 -12 -4 -19 -1 -8 3 -5 6 6 6 11 1 17 -2 13
-5z m-977 -29 c-6 -8 -18 -11 -26 -8 -20 7 -18 14 4 11 10 -2 16 2 14 10 -1 8
2 11 8 7 8 -5 8 -11 0 -20z m-5539 -12 c13 -16 12 -17 -3 -4 -17 13 -22 21
-14 21 2 0 10 -8 17 -17z m5599 -17 c0 -9 -32 -36 -42 -36 -6 0 0 9 13 20 25
21 29 23 29 16z m-5560 -16 c0 -5 -2 -10 -4 -10 -3 0 -8 5 -11 10 -3 6 -1 10
4 10 6 0 11 -4 11 -10z m-69 -37 c13 -14 18 -23 12 -19 -7 4 -23 2 -35 -4 -22
-11 -22 -10 -4 4 16 13 17 18 6 31 -21 26 -5 17 21 -12z m122 6 c5 -3 2 -9 -6
-12 -9 -3 -21 2 -29 11 -9 11 -10 14 0 8 7 -4 12 -2 12 5 0 7 3 8 8 3 4 -5 11
-12 15 -15z m5293 -14 c-1 -8 -8 -21 -16 -28 -10 -10 -11 -9 -4 3 5 8 9 18 10
23 3 14 4 17 8 17 2 0 3 -7 2 -15z m144 11 c0 -2 -8 -10 -17 -17 -16 -13 -17
-12 -4 4 13 16 21 21 21 13z m-45 -35 c-3 -6 3 -14 12 -20 10 -6 13 -11 7 -11
-15 0 -36 25 -27 33 10 10 15 8 8 -2z m-25 -15 c0 -2 -8 -10 -17 -17 -16 -13
-17 -12 -4 4 13 16 21 21 21 13z m-5215 -26 c3 -6 -1 -7 -9 -4 -18 7 -21 14
-7 14 6 0 13 -4 16 -10z m48 -24 c18 -4 18 -4 -3 -3 -14 1 -25 8 -26 17 0 8 1
10 3 3 2 -6 14 -14 26 -17z m5037 30 c0 -2 -8 -10 -17 -17 -16 -13 -17 -12 -4
4 13 16 21 21 21 13z m-5087 -30 c17 -13 25 -86 10 -86 -8 0 -83 68 -83 75 0
2 17 1 38 -1 35 -5 36 -5 18 10 -24 19 -8 21 17 2z m5197 -1 c0 -1 -12 -2 -26
-2 -17 0 -22 2 -13 7 10 7 39 3 39 -5z m-420 -18 c0 -6 -7 -50 -15 -97 -17
-98 -3 -84 -184 -188 -470 -272 -989 -476 -1459 -571 -157 -33 -433 -71 -507
-71 l-45 0 51 101 c39 79 48 104 37 110 -17 11 -19 9 -82 -111 l-55 -105 -223
1 c-229 2 -382 16 -593 55 -477 88 -982 299 -1402 588 l-98 67 -3 117 -3 117
2291 0 c1815 0 2290 -3 2290 -13z m1427 -4049 c-3 -8 -6 -5 -6 6 -1 11 2 17 5
13 3 -3 4 -12 1 -19z"/>
<path d="M25530 13931 c0 -6 4 -13 10 -16 6 -3 7 1 4 9 -7 18 -14 21 -14 7z"/>
<path d="M18389 13828 c-6 -17 -8 -679 -8 -4536 -1 -2461 2 -4479 6 -4485 4
-7 -1 -6 -10 2 -15 12 -17 11 -17 -13 0 -14 -5 -26 -11 -26 -6 0 -9 -7 -5 -15
3 -8 -1 -20 -8 -27 -14 -15 -52 -116 -50 -135 1 -7 -2 -10 -7 -7 -13 8 -11
-10 4 -25 10 -11 9 -13 -1 -7 -17 10 -65 -98 -57 -128 5 -17 4 -18 -4 -6 -9
13 -11 12 -12 -5 -1 -11 -2 -26 -2 -33 1 -6 -3 -12 -7 -12 -9 0 -26 -44 -19
-46 2 0 -2 -8 -9 -17 -8 -9 -11 -21 -7 -27 3 -5 2 -10 -3 -10 -8 0 -92 -207
-92 -225 0 -3 23 -5 50 -5 43 0 52 3 59 23 30 76 44 113 81 207 23 58 42 115
42 128 0 12 4 22 7 22 8 0 51 94 51 109 0 5 6 13 13 19 9 8 11 -39 9 -231 -2
-187 0 -242 10 -249 11 -6 11 -8 0 -8 -7 0 -10 -4 -7 -10 3 -5 26 -10 51 -10
l44 0 0 291 c0 219 3 288 12 283 7 -5 9 -2 6 8 -4 8 -1 15 7 15 10 0 11 -6 3
-22 -7 -16 -3 -35 17 -81 48 -108 53 -119 75 -181 12 -35 25 -61 29 -59 3 2 7
-7 8 -21 0 -14 5 -28 10 -32 4 -3 17 -31 27 -61 10 -30 25 -65 32 -77 8 -12
14 -29 14 -38 0 -10 10 -15 33 -15 17 0 42 -3 55 -6 13 -4 22 -2 22 5 0 7 -4
10 -9 7 -5 -4 -7 4 -3 16 3 14 1 19 -6 14 -8 -5 -10 -1 -6 9 4 10 -3 29 -16
47 -12 17 -18 28 -12 24 11 -6 -26 92 -68 179 -10 22 -22 52 -25 67 -4 16 -11
25 -16 22 -5 -3 -6 2 -3 10 3 9 1 16 -5 16 -6 0 -11 9 -11 20 0 11 -15 50 -32
87 -18 38 -33 70 -33 73 0 3 -6 20 -13 37 -6 18 -17 46 -23 63 -6 16 -15 27
-20 24 -5 -3 -6 1 -4 9 3 7 -6 38 -20 68 l-25 54 0 4458 0 4457 -22 1 c-22 1
-22 1 2 9 20 7 16 8 -22 9 -27 1 -48 0 -49 -1z m38 -14 c-3 -3 -12 -4 -19 -1
-8 3 -5 6 6 6 11 1 17 -2 13 -5z m83 -9058 c0 -3 -4 -8 -10 -11 -5 -3 -10 -1
-10 4 0 6 5 11 10 11 6 0 10 -2 10 -4z m98 -211 c-3 -3 -9 2 -12 12 -6 14 -5
15 5 6 7 -7 10 -15 7 -18z m-61 -17 c-3 -8 -6 -5 -6 6 -1 11 2 17 5 13 3 -3 4
-12 1 -19z m50 -130 c-3 -7 -5 -2 -5 12 0 14 2 19 5 13 2 -7 2 -19 0 -25z m80
-20 c-3 -8 -6 -5 -6 6 -1 11 2 17 5 13 3 -3 4 -12 1 -19z m-65 -10 c-7 -7 -12
-8 -12 -2 0 14 12 26 19 19 2 -3 -1 -11 -7 -17z m132 -144 c3 -8 2 -12 -4 -9
-6 3 -10 10 -10 16 0 14 7 11 14 -7z m21 -34 c3 -5 1 -10 -4 -10 -6 0 -11 5
-11 10 0 6 2 10 4 10 3 0 8 -4 11 -10z m-632 -35 c-3 -9 -8 -14 -10 -11 -3 3
-2 9 2 15 9 16 15 13 8 -4z m57 -5 c6 -11 8 -20 6 -20 -3 0 -10 9 -16 20 -6
11 -8 20 -6 20 3 0 10 -9 16 -20z"/>
<path d="M25548 12920 c-38 -99 -69 -300 -50 -327 21 -32 76 218 70 318 l-3
54 -17 -45z"/>
<path d="M25962 12853 c-33 -32 -103 -98 -154 -147 -51 -49 -114 -106 -139
-126 -65 -52 -193 -120 -224 -120 -20 0 -25 -5 -25 -25 0 -28 6 -29 70 -12 79
21 198 95 287 180 26 25 46 36 54 32 8 -5 10 -4 5 3 -8 13 151 169 168 164 6
-2 8 -1 4 3 -3 3 14 25 39 48 44 41 45 42 22 48 -41 12 -44 10 -107 -48z"/>
<path d="M25767 12709 c7 -7 15 -10 18 -7 3 3 -2 9 -12 12 -14 6 -15 5 -6 -5z"/>
<path d="M25033 12421 c-37 -23 -47 -48 -45 -117 l1 -51 -62 -25 -62 -26 -8
22 c-5 11 -7 41 -5 66 2 42 1 45 -24 48 -23 3 -28 -1 -33 -30 -3 -18 -2 -53 4
-78 11 -47 10 -48 -34 -75 -10 -6 -14 -16 -10 -27 6 -16 10 -16 39 -4 31 13
33 12 64 -25 53 -63 131 -69 180 -14 18 21 22 38 22 89 l0 63 61 27 c34 15 64
24 67 22 3 -3 7 -28 10 -56 4 -45 7 -50 30 -50 24 0 25 1 20 69 -5 70 -5 70
23 80 30 10 34 18 21 38 -6 10 -15 10 -38 2 -27 -11 -32 -9 -70 30 -35 34 -48
41 -80 41 -22 0 -53 -9 -71 -19z m116 -65 l23 -25 -38 -16 c-89 -38 -84 -38
-84 0 0 63 56 86 99 41z m-149 -177 c0 -70 -53 -94 -100 -44 l-23 24 54 25
c69 31 69 31 69 -5z"/>
<path d="M27186 12031 c-19 -7 -19 -8 0 -15 34 -14 208 -20 200 -8 -16 26
-152 42 -200 23z"/>
<path d="M9756 11938 c-17 -178 -32 -453 -81 -1423 -22 -442 -50 -1172 -60
-1535 -3 -118 -8 -289 -11 -380 -3 -91 -2 -162 2 -158 14 15 82 1244 114 2063
5 143 15 368 20 500 14 333 31 987 26 992 -2 3 -7 -24 -10 -59z"/>
<path d="M11141 11960 c-1 -44 8 -244 29 -645 15 -291 79 -1301 90 -1430 5
-60 14 -177 20 -260 14 -201 49 -668 55 -730 3 -27 12 -131 21 -230 9 -99 19
-182 21 -185 7 -7 -21 585 -57 1190 -6 91 -15 239 -20 330 -10 164 -21 321
-60 855 -48 659 -69 902 -89 1080 -7 57 -9 62 -10 25z"/>
<path d="M14581 11438 c-7 -21 -9 -43 -5 -49 4 -7 3 -9 -3 -6 -10 6 -18 -19
-53 -178 -6 -27 -14 -142 -17 -255 -10 -407 51 -667 345 -1465 136 -371 205
-607 243 -835 18 -109 20 -148 14 -297 -7 -171 -7 -173 14 -173 20 0 21 5 21
108 1 183 16 297 55 417 61 190 87 337 92 537 4 110 1 208 -6 260 -24 169
-100 409 -191 605 -22 47 -40 88 -40 93 0 4 -7 13 -15 20 -8 6 -13 15 -12 19
4 14 -156 340 -164 335 -5 -3 -6 3 -2 12 5 13 3 15 -7 9 -9 -5 -11 -4 -6 4 10
15 -54 152 -67 144 -6 -3 -7 -1 -3 5 4 7 -13 62 -38 124 -24 62 -57 154 -71
203 -15 50 -29 97 -32 105 -6 18 -9 33 -26 180 -13 113 -13 114 -26 78z"/>
<path d="M27868 11413 c6 -2 18 -2 25 0 6 3 1 5 -13 5 -14 0 -19 -2 -12 -5z"/>
<path d="M25450 11383 c0 -15 2 -15 24 -7 22 9 20 20 -4 20 -11 0 -20 -6 -20
-13z"/>
<path d="M25390 11270 c7 -4 9 -17 4 -35 -6 -25 -5 -27 12 -21 10 5 26 9 34
10 8 0 21 6 27 13 7 6 18 13 25 16 24 8 2 16 -56 20 -32 2 -53 1 -46 -3z"/>
<path d="M3334 11180 c-151 -289 -247 -553 -289 -795 -19 -110 -27 -510 -15
-765 22 -467 38 -712 76 -1175 45 -562 133 -1482 204 -2135 30 -274 113 -1013
126 -1122 6 -54 9 -58 33 -58 25 0 613 97 1186 195 143 24 600 101 1015 170
851 142 898 150 905 157 20 20 187 558 244 787 85 336 98 478 61 657 -25 123
-148 602 -233 909 l-64 230 -1345 3 -1345 2 -7 128 c-8 157 -31 555 -51 887
-8 138 -24 408 -35 600 -11 193 -27 467 -35 611 -8 143 -15 277 -15 297 0 30
-8 47 -41 82 -23 25 -46 45 -50 45 -5 0 2 -22 15 -49 32 -63 45 -151 23 -151
-41 0 -149 162 -255 381 l-79 163 -29 -54z"/>
<path d="M11548 11053 c7 -3 16 -2 19 1 4 3 -2 6 -13 5 -11 0 -14 -3 -6 -6z"/>
<path d="M15636 10838 c-4 -9 -9 -22 -10 -30 -2 -7 -8 -25 -14 -40 -23 -57
-64 -264 -71 -358 -12 -168 -11 -428 4 -715 24 -465 11 -722 -46 -933 -10 -40
-16 -78 -13 -84 4 -6 3 -8 -3 -5 -14 9 -97 -243 -123 -370 -25 -125 -25 -123
1 -123 18 0 21 5 17 30 -3 17 -1 30 4 30 4 0 8 10 8 23 0 67 106 401 140 442
5 7 6 16 2 20 -4 5 -2 5 5 2 13 -8 85 71 77 85 -3 5 -1 7 4 6 10 -3 62 55 62
70 0 6 4 12 9 14 8 3 60 93 97 168 124 256 146 554 68 895 -9 39 -41 158 -71
265 -74 263 -111 419 -127 531 -8 57 -16 87 -20 77z"/>
<path d="M13834 10070 c18 -363 100 -657 237 -856 66 -94 202 -234 299 -305
134 -99 218 -151 231 -143 7 4 10 3 5 -4 -3 -5 9 -19 26 -30 89 -53 150 -82
160 -76 7 4 8 3 4 -4 -4 -7 -2 -12 3 -12 28 0 171 -377 174 -456 0 -6 9 -9 19
-6 21 5 20 13 -24 159 -17 56 -35 100 -39 97 -5 -3 -6 1 -3 9 5 14 -69 191
-77 183 -2 -2 -5 16 -6 41 -4 92 -77 303 -140 405 -13 21 -23 41 -23 46 0 4
-13 23 -30 42 -16 19 -29 41 -30 48 0 7 -11 24 -25 37 -13 14 -22 25 -19 25 5
0 -62 87 -77 100 -3 3 -12 14 -20 26 -14 22 -118 142 -154 178 -11 11 -35 38
-53 60 -90 107 -196 215 -205 209 -6 -3 -7 -1 -3 6 4 7 -15 37 -46 74 -30 34
-71 88 -93 120 -21 31 -42 57 -47 57 -4 0 -7 3 -6 8 1 4 -8 23 -21 42 l-23 35
6 -115z m561 -1129 c3 -5 2 -12 -3 -15 -5 -3 -9 1 -9 9 0 17 3 19 12 6z"/>
<path d="M12571 9744 c0 -11 3 -14 6 -6 3 7 2 16 -1 19 -3 4 -6 -2 -5 -13z"/>
<path d="M22765 9229 c-59 -11 -95 -27 -91 -41 1 -7 1 -10 -1 -5 -9 14 -25 7
-19 -9 3 -8 2 -12 -3 -9 -22 13 -36 -56 -19 -98 15 -40 54 -56 126 -54 34 1
62 -2 62 -7 0 -4 9 -6 21 -3 25 7 63 -27 67 -58 4 -32 -59 -68 -128 -73 -31
-2 -67 1 -78 7 -17 9 -22 8 -27 -10 -9 -28 -5 -30 65 -36 66 -6 156 19 144 39
-4 7 -2 8 4 4 16 -10 52 30 59 66 4 22 3 29 -5 24 -8 -5 -10 -2 -6 8 4 10 -6
27 -24 46 -29 29 -34 30 -115 30 -93 0 -113 9 -136 65 -7 17 -10 27 -6 23 7
-7 55 33 50 42 -3 5 8 7 103 10 34 1 62 5 62 9 -1 28 -44 41 -105 30z m166
-306 c-12 -20 -14 -14 -5 12 4 9 9 14 11 11 3 -2 0 -13 -6 -23z"/>
<path d="M22529 9167 c-20 -15 -63 -143 -53 -158 4 -8 3 -9 -4 -5 -8 5 -12 0
-12 -13 0 -34 -1 -36 -16 -44 -10 -6 -21 -1 -35 15 -11 13 -18 16 -14 8 4 -8
0 -6 -9 5 -51 66 -69 84 -79 78 -5 -3 -7 -2 -4 4 8 12 -33 50 -50 47 -7 -1
-18 -2 -25 -3 -7 0 12 -26 42 -56 29 -30 57 -52 62 -49 5 3 7 1 6 -4 -2 -5 16
-30 40 -56 33 -35 46 -60 59 -111 14 -58 18 -65 41 -65 21 0 23 3 18 23 -4 12
-10 41 -13 65 -3 23 -10 42 -16 42 -6 0 -6 4 1 13 18 21 51 137 45 154 -5 12
-3 14 7 8 10 -6 12 -3 8 13 -4 12 -3 20 2 17 10 -6 23 42 15 55 -4 6 -1 10 4
10 6 0 11 5 11 10 0 13 -11 12 -31 -3z m-259 -83 c0 -8 -19 -13 -24 -6 -3 5 1
9 9 9 8 0 15 -2 15 -3z m227 -66 c-3 -8 -6 -5 -6 6 -1 11 2 17 5 13 3 -3 4
-12 1 -19z m-130 -43 c0 -8 -4 -12 -9 -9 -5 3 -6 10 -3 15 9 13 12 11 12 -6z
m80 -67 c-3 -8 -6 -5 -6 6 -1 11 2 17 5 13 3 -3 4 -12 1 -19z m38 -128 c-3 -5
-12 -10 -18 -10 -7 0 -6 4 3 10 19 12 23 12 15 0z"/>
<path d="M21977 9046 c-60 -16 -120 -71 -111 -100 4 -15 3 -17 -4 -7 -11 15
-27 -2 -17 -19 3 -5 1 -10 -4 -10 -19 0 -12 -98 9 -140 11 -22 25 -40 30 -40
6 0 10 -7 10 -16 0 -10 5 -14 16 -10 8 3 12 2 9 -4 -8 -13 61 -40 105 -40 50
0 123 23 156 49 15 11 23 21 18 21 -5 0 -1 5 9 11 9 5 17 19 17 29 0 11 4 20
9 20 15 0 22 68 11 108 -13 50 -49 104 -78 117 -12 5 -22 13 -22 18 0 4 -5 5
-12 1 -17 -11 -59 -14 -53 -4 3 5 12 7 19 4 8 -3 17 -1 21 5 3 6 3 11 -2 12
-4 0 -26 2 -48 4 -22 2 -62 -2 -88 -9z m150 -57 c19 -12 41 -36 48 -53 11 -26
15 -28 20 -13 4 9 11 17 16 17 5 0 3 -10 -5 -22 -10 -17 -12 -37 -7 -75 4 -29
4 -50 -1 -47 -4 3 -8 1 -8 -5 0 -5 5 -13 10 -16 6 -3 10 -12 10 -18 0 -7 -5
-4 -11 6 -13 22 -33 22 -25 0 4 -10 4 -15 1 -11 -4 3 -23 -5 -42 -18 -65 -44
-136 -49 -179 -14 -7 7 -19 8 -26 4 -7 -4 -10 -4 -6 1 4 4 -2 21 -14 38 -13
19 -23 51 -26 85 -3 35 -8 49 -13 40 -5 -7 -9 -8 -9 -3 0 6 9 19 21 28 13 12
18 24 14 35 -3 9 -3 13 1 9 4 -3 20 5 36 18 16 14 34 25 39 25 6 0 8 3 6 8 -3
4 22 6 54 5 42 -1 71 -9 96 -24z m53 -4 c7 -9 8 -15 2 -15 -5 0 -12 7 -16 15
-3 8 -4 15 -2 15 2 0 9 -7 16 -15z m-270 -5 c0 -5 -5 -10 -11 -10 -5 0 -7 5
-4 10 3 6 8 10 11 10 2 0 4 -4 4 -10z m317 -82 c-3 -8 -6 -5 -6 6 -1 11 2 17
5 13 3 -3 4 -12 1 -19z m-120 -214 c-3 -3 -12 -4 -19 -1 -8 3 -5 6 6 6 11 1
17 -2 13 -5z"/>
<path d="M21726 8978 c5 -7 3 -8 -5 -3 -18 10 -132 -15 -124 -28 4 -7 0 -8
-12 -4 -18 7 -135 -21 -135 -32 1 -14 19 -33 27 -28 5 3 25 9 44 12 19 3 41 8
50 10 13 4 22 -24 54 -160 36 -155 40 -165 62 -165 13 0 23 3 23 8 1 22 -36
158 -44 163 -5 4 -6 14 -3 23 3 8 2 28 -3 43 -4 15 -11 41 -15 56 -5 25 -8 27
-23 16 -13 -10 -12 -7 3 11 11 14 20 26 20 27 1 1 19 5 40 9 21 3 49 10 63 15
20 8 22 12 12 24 -15 18 -45 21 -34 3z m-89 -210 c-3 -7 -5 -2 -5 12 0 14 2
19 5 13 2 -7 2 -19 0 -25z m20 -60 c-3 -8 -6 -5 -6 6 -1 11 2 17 5 13 3 -3 4
-12 1 -19z"/>
<path d="M19971 7844 c0 -11 3 -14 6 -6 3 7 2 16 -1 19 -3 4 -6 -2 -5 -13z"/>
<path d="M14691 7694 c0 -11 3 -14 6 -6 3 7 2 16 -1 19 -3 4 -6 -2 -5 -13z"/>
<path d="M20485 7570 c-3 -6 1 -7 9 -4 18 7 21 14 7 14 -6 0 -13 -4 -16 -10z"/>
<path d="M20090 7324 c0 -5 -26 -19 -58 -32 -32 -12 -68 -31 -80 -43 l-22 -20
0 -1579 c0 -868 3 -1585 6 -1594 7 -19 34 -22 34 -3 0 9 2 9 9 -1 5 -9 26 -12
67 -10 l59 3 3 1634 c1 1083 -1 1638 -8 1645 -6 6 -10 6 -10 0z"/>
<path d="M13550 6650 l0 -540 -404 0 -404 0 -6 -22 c-10 -40 -7 -88 7 -88 8 0
7 -3 -3 -10 -13 -8 -15 -105 -16 -770 l0 -760 1795 0 c988 0 2019 0 2291 1
272 0 537 0 589 -1 68 -1 96 3 102 12 5 7 9 53 9 102 0 77 -2 87 -15 76 -21
-17 -19 -5 3 16 16 16 17 63 17 693 0 372 -4 693 -8 714 l-8 37 -90 0 c-69 0
-89 -3 -83 -12 6 -10 4 -10 -7 0 -10 9 -88 12 -321 12 l-308 0 0 540 0 540
-1570 0 -1570 0 0 -540z m170 526 c0 -2 -8 -10 -17 -17 -16 -13 -17 -12 -4 4
13 16 21 21 21 13z m2848 -41 c-3 -3 -9 2 -12 12 -6 14 -5 15 5 6 7 -7 10 -15
7 -18z m-1824 -491 c3 -8 2 -12 -4 -9 -6 3 -10 10 -10 16 0 14 7 11 14 -7z
m104 -109 c-3 -3 -9 2 -12 12 -6 14 -5 15 5 6 7 -7 10 -15 7 -18z m525 10 c-3
-9 -8 -14 -10 -11 -3 3 -2 9 2 15 9 16 15 13 8 -4z m30 0 c-3 -9 -8 -14 -10
-11 -3 3 -2 9 2 15 9 16 15 13 8 -4z m-625 -30 c-3 -3 -9 2 -12 12 -6 14 -5
15 5 6 7 -7 10 -15 7 -18z m192 -69 c0 -2 -7 -7 -16 -10 -8 -3 -12 -2 -9 4 6
10 25 14 25 6z m355 -76 c-3 -5 -12 -10 -18 -10 -7 0 -6 4 3 10 19 12 23 12
15 0z m-298 -36 c-3 -3 -12 -4 -19 -1 -8 3 -5 6 6 6 11 1 17 -2 13 -5z m-1346
-181 c13 -16 12 -17 -3 -4 -10 7 -18 15 -18 17 0 8 8 3 21 -13z m2679 -63 c0
-5 -5 -10 -11 -10 -5 0 -7 5 -4 10 3 6 8 10 11 10 2 0 4 -4 4 -10z m995 -21
c11 -16 1 -19 -13 -3 -7 8 -8 14 -3 14 5 0 13 -5 16 -11z m-4474 -22 c-10 -9
-11 -8 -5 6 3 10 9 15 12 12 3 -3 0 -11 -7 -18z m-51 -7 c0 -5 -5 -10 -11 -10
-5 0 -7 5 -4 10 3 6 8 10 11 10 2 0 4 -4 4 -10z m4637 -92 c-3 -8 -6 -5 -6 6
-1 11 2 17 5 13 3 -3 4 -12 1 -19z m-1863 -826 c3 -5 -1 -9 -9 -9 -8 0 -12 4
-9 9 3 4 7 8 9 8 2 0 6 -4 9 -8z m-64 -106 c0 -11 -19 -15 -25 -6 -3 5 1 10 9
10 9 0 16 -2 16 -4z m-245 -164 c-3 -3 -11 0 -18 7 -9 10 -8 11 6 5 10 -3 15
-9 12 -12z m-157 -19 c-10 -2 -26 -2 -35 0 -10 3 -2 5 17 5 19 0 27 -2 18 -5z"/>
<path d="M22307 6928 c-46 -90 -126 -243 -177 -340 -77 -150 -95 -178 -114
-178 -12 0 -47 -7 -77 -16 -75 -22 -151 -99 -170 -172 l-13 -52 -585 0 c-549
0 -589 -2 -626 -19 -47 -22 -89 -64 -104 -104 -8 -19 -11 -321 -11 -943 0
-800 2 -919 15 -951 20 -48 41 -71 87 -94 37 -19 77 -19 1279 -19 l1242 0 37
21 c43 25 71 59 88 108 9 25 12 273 12 940 0 859 -1 908 -19 946 -22 48 -54
79 -103 100 -32 13 -97 15 -413 15 -350 0 -375 1 -375 18 -1 27 -36 99 -64
129 l-26 28 23 11 c12 6 138 60 280 119 141 59 257 112 257 117 0 27 -55 9
-310 -98 -275 -115 -281 -117 -320 -105 l-41 12 157 307 c86 169 163 314 171
323 12 14 12 17 -3 23 -9 3 -14 12 -10 21 3 8 4 15 1 15 -2 0 -42 -73 -88
-162z"/>
<path d="M22821 6659 l-20 -49 44 0 c49 0 77 25 68 61 -3 10 -6 19 -7 19 -1 0
-15 4 -33 9 -30 9 -32 8 -52 -40z"/>
<path d="M6317 5353 c-8 -27 -28 -86 -45 -132 -29 -79 -31 -93 -33 -242 -1
-87 -5 -156 -10 -154 -4 3 -10 -5 -14 -17 -11 -40 -97 -261 -116 -301 -11 -22
-19 -43 -19 -49 0 -5 -7 -24 -15 -41 -27 -61 -64 -167 -57 -167 4 0 1 -4 -6
-9 -8 -5 -15 -20 -15 -34 -1 -14 -4 -24 -7 -22 -3 2 -14 -21 -26 -51 -12 -29
-17 -51 -13 -48 5 3 6 -2 3 -10 -3 -9 -10 -16 -15 -16 -5 0 -9 -4 -9 -8 0 -5
25 -10 56 -11 53 -1 55 0 49 20 -4 13 -3 19 2 16 6 -4 16 13 24 36 7 23 16 44
19 47 11 10 39 93 34 101 -3 5 0 9 6 9 7 0 10 7 6 15 -3 8 0 15 6 15 7 0 6 5
-2 15 -11 13 -10 14 2 10 11 -4 19 3 27 26 13 39 14 49 1 29 -5 -8 -10 -10
-10 -5 0 6 9 19 21 28 15 14 19 25 15 45 -4 17 -3 22 2 14 13 -19 25 13 17 42
-4 13 -3 16 2 9 6 -9 12 -3 20 18 11 28 10 29 -5 17 -11 -8 -10 -5 3 11 l20
23 3 -271 2 -271 50 0 51 0 -3 280 c-3 249 3 323 19 260 3 -11 10 -17 16 -13
6 3 7 1 3 -5 -9 -15 54 -153 67 -145 6 4 8 0 4 -11 -10 -24 19 -89 35 -80 10
5 10 4 2 -5 -9 -10 -8 -23 4 -52 8 -21 19 -39 23 -39 5 0 6 -7 3 -15 -4 -8 -1
-15 7 -15 7 0 10 -3 6 -6 -9 -9 14 -65 24 -58 5 3 6 -1 3 -9 -3 -8 3 -30 13
-48 14 -26 26 -35 51 -37 25 -3 32 1 33 15 0 14 2 15 7 3 4 -8 12 -16 19 -17
14 -3 8 16 -37 115 -17 35 -30 68 -30 73 0 6 -5 7 -12 3 -7 -4 -8 -3 -4 4 4 6
-1 28 -10 49 -10 21 -18 40 -19 43 -11 42 -18 52 -26 39 -7 -9 -7 -5 -3 14 7
30 -9 37 -24 11 -8 -15 -10 -15 -15 0 -4 10 -3 15 2 12 5 -3 15 1 22 10 11 13
10 17 -4 26 -10 5 -15 13 -12 19 8 12 -4 51 -13 45 -4 -2 -8 8 -9 22 0 15 -6
28 -12 30 -5 2 -8 9 -5 16 3 7 -7 29 -21 50 -14 20 -21 35 -15 31 6 -3 7 0 4
9 -3 9 -10 13 -16 10 -5 -3 -9 0 -7 7 4 32 -1 50 -13 43 -6 -4 -8 -3 -4 4 6
11 -23 84 -37 90 -4 2 -4 8 -1 13 3 6 1 16 -5 23 -7 8 -11 107 -11 279 -1 147
-3 267 -5 267 -2 0 -10 -21 -18 -47z m226 -1106 c3 -8 2 -20 -3 -26 -5 -9 -7
-4 -7 13 0 29 2 32 10 13z"/>
<path d="M7269 4173 c-13 -16 -12 -17 4 -4 9 7 17 15 17 17 0 8 -8 3 -21 -13z"/>
<path d="M4687 3487 c-28 -91 -38 -139 -37 -187 l0 -66 -71 -16 c-85 -21 -177
-75 -303 -182 -50 -42 -98 -76 -108 -76 -30 0 -78 28 -161 96 l-79 64 -94 0
c-77 0 -96 -3 -101 -16 -3 -9 2 -88 11 -177 l17 -162 -27 -100 c-48 -188 -34
-382 34 -450 l27 -27 1163 4 c1079 3 1165 4 1173 20 12 22 12 120 0 151 -15
38 -40 57 -74 57 -18 0 -77 16 -132 34 -74 26 -107 43 -130 68 -158 172 -315
356 -315 369 0 5 14 40 31 77 58 126 110 267 116 313 l5 46 -48 17 c-88 30
-201 20 -390 -35 -56 -16 -106 -29 -111 -29 -23 0 -76 69 -121 156 -50 100
-51 101 -176 150 -33 13 -60 24 -60 24 -1 0 -18 -55 -39 -123z"/>
<path d="M18378 3563 c7 -3 16 -2 19 1 4 3 -2 6 -13 5 -11 0 -14 -3 -6 -6z"/>
<path d="M24640 3251 c0 -16 -5 -33 -10 -36 -6 -4 -8 -10 -6 -14 3 -4 1 -36
-4 -72 -13 -90 -38 -401 -44 -549 -7 -171 6 -194 27 -49 38 254 68 731 48 743
-7 5 -11 -3 -11 -23z"/>
<path d="M27264 3195 c-5 -49 -9 -209 -9 -355 0 -146 4 -305 9 -355 8 -80 10
-87 19 -60 7 19 10 177 10 415 0 238 -3 396 -10 415 -9 27 -11 20 -19 -60z"/>
<path d="M27451 2334 c0 -11 3 -14 6 -6 3 7 2 16 -1 19 -3 4 -6 -2 -5 -13z"/>
<path d="M24725 2230 c-3 -5 -1 -10 4 -10 6 0 11 5 11 10 0 6 -2 10 -4 10 -3
0 -8 -4 -11 -10z"/>
</g>
</svg>
