<svg width="20" height="20" viewBox="0 0 20 20" fill="none" xmlns="http://www.w3.org/2000/svg">
<path d="M9.94664 15.4583L9.86664 15.5417L9.77864 15.4583C5.9786 11.8667 3.4666 9.49167 3.4666 7.08333C3.4666 5.41667 4.6666 4.16667 6.2666 4.16667C7.4986 4.16667 8.69864 5 9.12264 6.13333H10.6106C11.0346 5 12.2346 4.16667 13.4666 4.16667C15.0666 4.16667 16.2666 5.41667 16.2666 7.08333C16.2666 9.49167 13.7546 11.8667 9.94664 15.4583ZM13.4666 2.5C12.0746 2.5 10.7386 3.175 9.86664 4.23333C8.99464 3.175 7.6586 2.5 6.2666 2.5C3.8026 2.5 1.8666 4.50833 1.8666 7.08333C1.8666 10.225 4.5866 12.8 8.70664 16.6917L9.86664 17.7917L11.0266 16.6917C15.1466 12.8 17.8666 10.225 17.8666 7.08333C17.8666 4.50833 15.9306 2.5 13.4666 2.5Z" fill="#82AAE3"/>
</svg>
